G04 #@! TF.GenerationSoftware,KiCad,Pcbnew,5.1.7-1.fc32*
G04 #@! TF.CreationDate,2020-10-19T10:18:13+01:00*
G04 #@! TF.ProjectId,Amiga600,416d6967-6136-4303-902e-6b696361645f,rev?*
G04 #@! TF.SameCoordinates,Original*
G04 #@! TF.FileFunction,Soldermask,Top*
G04 #@! TF.FilePolarity,Negative*
%FSLAX46Y46*%
G04 Gerber Fmt 4.6, Leading zero omitted, Abs format (unit mm)*
G04 Created by KiCad (PCBNEW 5.1.7-1.fc32) date 2020-10-19 10:18:13*
%MOMM*%
%LPD*%
G01*
G04 APERTURE LIST*
%ADD10C,0.100000*%
%ADD11C,1.370000*%
%ADD12R,1.370000X1.370000*%
%ADD13C,4.000000*%
%ADD14R,5.000000X2.500000*%
%ADD15O,4.750000X2.500000*%
%ADD16R,0.600000X2.000000*%
%ADD17C,2.250000*%
%ADD18C,1.900000*%
%ADD19C,5.200000*%
%ADD20C,4.200000*%
%ADD21R,1.900000X1.900000*%
%ADD22R,8.128000X8.128000*%
%ADD23C,4.500000*%
%ADD24R,2.000000X0.600000*%
%ADD25C,3.200000*%
%ADD26R,7.112000X6.096000*%
%ADD27R,0.762000X6.350000*%
%ADD28C,1.600000*%
%ADD29R,2.400000X3.200000*%
%ADD30R,3.200000X1.900000*%
%ADD31R,1.900000X3.200000*%
%ADD32R,1.300000X3.600000*%
%ADD33R,3.600000X1.300000*%
%ADD34R,1.300000X3.000000*%
%ADD35R,1.600000X1.600000*%
%ADD36R,1.000000X1.250000*%
%ADD37R,1.524000X1.270000*%
%ADD38R,1.370000X1.900000*%
%ADD39R,1.900000X1.370000*%
%ADD40R,1.900000X2.300000*%
%ADD41R,2.300000X1.900000*%
%ADD42C,3.300000*%
%ADD43C,3.400000*%
%ADD44R,10.160000X10.160000*%
%ADD45C,1.330000*%
%ADD46R,1.330000X1.330000*%
%ADD47R,3.750000X2.500000*%
%ADD48R,2.500000X3.750000*%
%ADD49O,2.000000X3.500000*%
%ADD50O,3.500000X2.300000*%
G04 APERTURE END LIST*
D10*
G36*
X237998000Y-129540000D02*
G01*
X183388000Y-129540000D01*
X183388000Y-122682000D01*
X237998000Y-122682000D01*
X237998000Y-129540000D01*
G37*
G36*
X187836000Y-42340000D02*
G01*
X187836000Y-44140000D01*
X185036000Y-44140000D01*
X185036000Y-42340000D01*
X187836000Y-42340000D01*
G37*
G36*
X187836000Y-37140000D02*
G01*
X187836000Y-38940000D01*
X185036000Y-38940000D01*
X185036000Y-37140000D01*
X187836000Y-37140000D01*
G37*
G36*
X236142000Y-30350000D02*
G01*
X237942000Y-30350000D01*
X237942000Y-33150000D01*
X236142000Y-33150000D01*
X236142000Y-30350000D01*
G37*
G36*
X230942000Y-30350000D02*
G01*
X232742000Y-30350000D01*
X232742000Y-33150000D01*
X230942000Y-33150000D01*
X230942000Y-30350000D01*
G37*
G36*
X226998000Y-13332000D02*
G01*
X228798000Y-13332000D01*
X228798000Y-16132000D01*
X226998000Y-16132000D01*
X226998000Y-13332000D01*
G37*
G36*
X221798000Y-13332000D02*
G01*
X223598000Y-13332000D01*
X223598000Y-16132000D01*
X221798000Y-16132000D01*
X221798000Y-13332000D01*
G37*
G36*
X223396000Y-31164000D02*
G01*
X223396000Y-32964000D01*
X220596000Y-32964000D01*
X220596000Y-31164000D01*
X223396000Y-31164000D01*
G37*
G36*
X223396000Y-25964000D02*
G01*
X223396000Y-27764000D01*
X220596000Y-27764000D01*
X220596000Y-25964000D01*
X223396000Y-25964000D01*
G37*
G36*
X232742000Y-37214000D02*
G01*
X230942000Y-37214000D01*
X230942000Y-34414000D01*
X232742000Y-34414000D01*
X232742000Y-37214000D01*
G37*
G36*
X237942000Y-37214000D02*
G01*
X236142000Y-37214000D01*
X236142000Y-34414000D01*
X237942000Y-34414000D01*
X237942000Y-37214000D01*
G37*
D11*
X28052000Y-144780000D03*
X29962000Y-143510000D03*
X28052000Y-142240000D03*
X29962000Y-140970000D03*
X28052000Y-139700000D03*
X29962000Y-138430000D03*
X28052000Y-137160000D03*
X29962000Y-135890000D03*
X28052000Y-134620000D03*
X29962000Y-133350000D03*
X28052000Y-132080000D03*
X29962000Y-130810000D03*
X28052000Y-129540000D03*
X29962000Y-128270000D03*
X28052000Y-127000000D03*
X29962000Y-125730000D03*
X28052000Y-124460000D03*
X29962000Y-123190000D03*
X28052000Y-121920000D03*
X29962000Y-120650000D03*
X28052000Y-119380000D03*
X29962000Y-118110000D03*
X28052000Y-116840000D03*
X29962000Y-115570000D03*
X28052000Y-114300000D03*
X29962000Y-113030000D03*
X28052000Y-111760000D03*
X29962000Y-110490000D03*
X28052000Y-109220000D03*
X29962000Y-107950000D03*
X28052000Y-106680000D03*
X29962000Y-105410000D03*
X28052000Y-104140000D03*
X29962000Y-102870000D03*
X31872000Y-144780000D03*
X33782000Y-143510000D03*
X31872000Y-142240000D03*
X33782000Y-140970000D03*
X31872000Y-139700000D03*
X33782000Y-138430000D03*
X31872000Y-137160000D03*
X33782000Y-135890000D03*
X31872000Y-134620000D03*
X33782000Y-133350000D03*
X31872000Y-132080000D03*
X33782000Y-130810000D03*
X31872000Y-129540000D03*
X33782000Y-128270000D03*
X31872000Y-127000000D03*
X33782000Y-125730000D03*
X31872000Y-124460000D03*
X33782000Y-123190000D03*
X31872000Y-121920000D03*
X33782000Y-120650000D03*
X31872000Y-119380000D03*
X33782000Y-118110000D03*
X31872000Y-116840000D03*
X33782000Y-115570000D03*
X31872000Y-114300000D03*
X33782000Y-113030000D03*
X31872000Y-111760000D03*
X33782000Y-110490000D03*
X31872000Y-109220000D03*
X33782000Y-107950000D03*
X31872000Y-106680000D03*
X33782000Y-105410000D03*
D12*
X33782000Y-102870000D03*
D13*
X31872000Y-98420000D03*
X31872000Y-149230000D03*
D11*
X31872000Y-104140000D03*
D14*
X61976000Y-106172000D03*
D15*
X61976000Y-106172000D03*
D14*
X155702000Y-106172000D03*
D15*
X155702000Y-106172000D03*
D14*
X155702000Y-31750000D03*
D15*
X155702000Y-31750000D03*
D14*
X61976000Y-31750000D03*
D15*
X61976000Y-31750000D03*
D16*
X276225000Y-33551000D03*
X283845000Y-33551000D03*
X277495000Y-33551000D03*
X280035000Y-33551000D03*
X285115000Y-33551000D03*
X278765000Y-33551000D03*
X281305000Y-33551000D03*
X282575000Y-33551000D03*
X276225000Y-36651000D03*
X277495000Y-36651000D03*
X278765000Y-36651000D03*
X280035000Y-36651000D03*
X281305000Y-36651000D03*
X282575000Y-36651000D03*
X283845000Y-36651000D03*
X285115000Y-36651000D03*
X285115000Y-42851000D03*
X283845000Y-42851000D03*
X282575000Y-42851000D03*
X281305000Y-42851000D03*
X280035000Y-42851000D03*
X278765000Y-42851000D03*
X277495000Y-42851000D03*
X276225000Y-42851000D03*
X110617000Y-82446000D03*
X118237000Y-82446000D03*
X111887000Y-82446000D03*
X114427000Y-82446000D03*
X119507000Y-82446000D03*
X113157000Y-82446000D03*
X115697000Y-82446000D03*
X116967000Y-82446000D03*
X110617000Y-85546000D03*
X111887000Y-85546000D03*
X113157000Y-85546000D03*
X114427000Y-85546000D03*
X115697000Y-85546000D03*
X116967000Y-85546000D03*
X118237000Y-85546000D03*
X119507000Y-85546000D03*
X119507000Y-91746000D03*
X118237000Y-91746000D03*
X116967000Y-91746000D03*
X115697000Y-91746000D03*
X114427000Y-91746000D03*
X113157000Y-91746000D03*
X111887000Y-91746000D03*
X110617000Y-91746000D03*
D11*
X263906000Y-25908000D03*
X263906000Y-23368000D03*
X266446000Y-25908000D03*
X266446000Y-23368000D03*
X268986000Y-25908000D03*
X268986000Y-23368000D03*
X271526000Y-25908000D03*
X271526000Y-23368000D03*
X274066000Y-25908000D03*
X274066000Y-23368000D03*
X276606000Y-25908000D03*
X276606000Y-23368000D03*
X279146000Y-25908000D03*
X279146000Y-23368000D03*
X281686000Y-25908000D03*
X281686000Y-23368000D03*
X284226000Y-25908000D03*
X284226000Y-23368000D03*
X286766000Y-25908000D03*
X286766000Y-23368000D03*
X289306000Y-25908000D03*
X289306000Y-23368000D03*
X291846000Y-25908000D03*
X291846000Y-23368000D03*
X294386000Y-25908000D03*
X294386000Y-23368000D03*
X296926000Y-25908000D03*
X296926000Y-23368000D03*
X299466000Y-25908000D03*
X299466000Y-23368000D03*
X302006000Y-25908000D03*
X302006000Y-23368000D03*
X304546000Y-25908000D03*
D12*
X304546000Y-23368000D03*
D17*
X11510000Y-11470000D03*
X19010000Y-16470000D03*
X16510000Y-13970000D03*
X4010000Y-11470000D03*
X4010000Y-16470000D03*
X14010000Y-3970000D03*
X9010000Y-3970000D03*
X11510000Y-3970000D03*
D18*
X303659000Y-6812000D03*
X300889000Y-6812000D03*
X298119000Y-6812000D03*
X295349000Y-6812000D03*
X292579000Y-6812000D03*
X289809000Y-6812000D03*
X287039000Y-6812000D03*
X284269000Y-6812000D03*
X281499000Y-6812000D03*
X278729000Y-6812000D03*
X275959000Y-6812000D03*
X305044000Y-9652000D03*
X302274000Y-9652000D03*
X299504000Y-9652000D03*
X296734000Y-9652000D03*
X293964000Y-9652000D03*
X291194000Y-9652000D03*
X288424000Y-9652000D03*
X285654000Y-9652000D03*
X282884000Y-9652000D03*
X280114000Y-9652000D03*
D19*
X267644000Y-8232000D03*
X311974000Y-8232000D03*
D20*
X267644000Y-8232000D03*
X311974000Y-8232000D03*
D18*
X277344000Y-9652000D03*
D21*
X274574000Y-9652000D03*
D18*
X219351000Y-6812000D03*
X222121000Y-6812000D03*
X224891000Y-6812000D03*
X227661000Y-6812000D03*
X230431000Y-6812000D03*
X233201000Y-6812000D03*
X235971000Y-6812000D03*
X238741000Y-6812000D03*
X241511000Y-6812000D03*
X244281000Y-6812000D03*
X247051000Y-6812000D03*
X249821000Y-6812000D03*
X217966000Y-9652000D03*
X220736000Y-9652000D03*
X223506000Y-9652000D03*
X226276000Y-9652000D03*
X229046000Y-9652000D03*
X231816000Y-9652000D03*
X234586000Y-9652000D03*
X237356000Y-9652000D03*
X240126000Y-9652000D03*
X242896000Y-9652000D03*
X245666000Y-9652000D03*
D19*
X211036000Y-8232000D03*
X258136000Y-8232000D03*
D20*
X211036000Y-8232000D03*
X258136000Y-8232000D03*
D18*
X248436000Y-9652000D03*
D21*
X251206000Y-9652000D03*
D18*
X192891000Y-6812000D03*
X190121000Y-6812000D03*
X187351000Y-6812000D03*
X184581000Y-6812000D03*
X181811000Y-6812000D03*
X179041000Y-6812000D03*
X176271000Y-6812000D03*
X173501000Y-6812000D03*
X170731000Y-6812000D03*
X167961000Y-6812000D03*
X165191000Y-6812000D03*
X162421000Y-6812000D03*
X194276000Y-9652000D03*
X191506000Y-9652000D03*
X188736000Y-9652000D03*
X185966000Y-9652000D03*
X183196000Y-9652000D03*
X180426000Y-9652000D03*
X177656000Y-9652000D03*
X174886000Y-9652000D03*
X172116000Y-9652000D03*
X169346000Y-9652000D03*
X166576000Y-9652000D03*
D19*
X154106000Y-8232000D03*
X201206000Y-8232000D03*
D20*
X154106000Y-8232000D03*
X201206000Y-8232000D03*
D18*
X163806000Y-9652000D03*
D21*
X161036000Y-9652000D03*
D22*
X274066000Y-96393000D03*
D23*
X274066000Y-96393000D03*
D24*
X213043500Y-30988000D03*
X213043500Y-32258000D03*
X213043500Y-33528000D03*
X213043500Y-34798000D03*
X213043500Y-36068000D03*
X213043500Y-37338000D03*
X213043500Y-38608000D03*
X213043500Y-39878000D03*
X213043500Y-41148000D03*
X213043500Y-42418000D03*
X213043500Y-43688000D03*
X196658500Y-43688000D03*
X196658500Y-42418000D03*
X196658500Y-41148000D03*
X196658500Y-39878000D03*
X196658500Y-38608000D03*
X196658500Y-37338000D03*
X196658500Y-36068000D03*
X196658500Y-34798000D03*
X196658500Y-33528000D03*
X196658500Y-32258000D03*
D16*
X211201000Y-45530500D03*
X209931000Y-45530500D03*
X208661000Y-45530500D03*
X207391000Y-45530500D03*
X206121000Y-45530500D03*
X204851000Y-45530500D03*
X203581000Y-45530500D03*
X202311000Y-45530500D03*
X201041000Y-45530500D03*
X199771000Y-45530500D03*
X198501000Y-45530500D03*
X198501000Y-29145500D03*
X199771000Y-29145500D03*
X201041000Y-29145500D03*
X202311000Y-29145500D03*
X203581000Y-29145500D03*
X204851000Y-29145500D03*
X206121000Y-29145500D03*
X207391000Y-29145500D03*
X208661000Y-29145500D03*
X209931000Y-29145500D03*
D24*
X196658500Y-30988000D03*
D16*
X211201000Y-29145500D03*
D24*
X310960500Y-32766000D03*
X310960500Y-34036000D03*
X310960500Y-35306000D03*
X310960500Y-36576000D03*
X310960500Y-37846000D03*
X310960500Y-39116000D03*
X310960500Y-40386000D03*
X310960500Y-41656000D03*
X310960500Y-42926000D03*
X310960500Y-44196000D03*
X310960500Y-45466000D03*
X294575500Y-45466000D03*
X294575500Y-44196000D03*
X294575500Y-42926000D03*
X294575500Y-41656000D03*
X294575500Y-40386000D03*
X294575500Y-39116000D03*
X294575500Y-37846000D03*
X294575500Y-36576000D03*
X294575500Y-35306000D03*
X294575500Y-34036000D03*
D16*
X309118000Y-47308500D03*
X307848000Y-47308500D03*
X306578000Y-47308500D03*
X305308000Y-47308500D03*
X304038000Y-47308500D03*
X302768000Y-47308500D03*
X301498000Y-47308500D03*
X300228000Y-47308500D03*
X298958000Y-47308500D03*
X297688000Y-47308500D03*
X296418000Y-47308500D03*
X296418000Y-30923500D03*
X297688000Y-30923500D03*
X298958000Y-30923500D03*
X300228000Y-30923500D03*
X301498000Y-30923500D03*
X302768000Y-30923500D03*
X304038000Y-30923500D03*
X305308000Y-30923500D03*
X306578000Y-30923500D03*
X307848000Y-30923500D03*
D24*
X294575500Y-32766000D03*
D16*
X309118000Y-30923500D03*
D24*
X181293500Y-34036000D03*
X181293500Y-35306000D03*
X181293500Y-36576000D03*
X181293500Y-37846000D03*
X181293500Y-39116000D03*
X181293500Y-40386000D03*
X181293500Y-41656000D03*
X181293500Y-42926000D03*
X181293500Y-44196000D03*
X181293500Y-45466000D03*
X181293500Y-46736000D03*
X164908500Y-46736000D03*
X164908500Y-45466000D03*
X164908500Y-44196000D03*
X164908500Y-42926000D03*
X164908500Y-41656000D03*
X164908500Y-40386000D03*
X164908500Y-39116000D03*
X164908500Y-37846000D03*
X164908500Y-36576000D03*
X164908500Y-35306000D03*
D16*
X179451000Y-48578500D03*
X178181000Y-48578500D03*
X176911000Y-48578500D03*
X175641000Y-48578500D03*
X174371000Y-48578500D03*
X173101000Y-48578500D03*
X171831000Y-48578500D03*
X170561000Y-48578500D03*
X169291000Y-48578500D03*
X168021000Y-48578500D03*
X166751000Y-48578500D03*
X166751000Y-32193500D03*
X168021000Y-32193500D03*
X169291000Y-32193500D03*
X170561000Y-32193500D03*
X171831000Y-32193500D03*
X173101000Y-32193500D03*
X174371000Y-32193500D03*
X175641000Y-32193500D03*
X176911000Y-32193500D03*
X178181000Y-32193500D03*
D24*
X164908500Y-34036000D03*
D16*
X179451000Y-32193500D03*
D12*
X108458000Y-57658000D03*
D11*
X116078000Y-57658000D03*
X116078000Y-72898000D03*
X108458000Y-72898000D03*
D25*
X311912000Y-22352000D03*
X5080000Y-188976000D03*
X282956000Y-150622000D03*
D26*
X179070000Y-115570000D03*
D27*
X235458000Y-125857000D03*
X234188000Y-125857000D03*
X232918000Y-125857000D03*
X231648000Y-125857000D03*
X230378000Y-125857000D03*
X229108000Y-125857000D03*
X227838000Y-125857000D03*
X226568000Y-125857000D03*
X225298000Y-125857000D03*
X224028000Y-125857000D03*
X222758000Y-125857000D03*
X221488000Y-125857000D03*
X220218000Y-125857000D03*
X218948000Y-125857000D03*
X217678000Y-125857000D03*
X216408000Y-125857000D03*
X215138000Y-125857000D03*
X213868000Y-125857000D03*
X212598000Y-125857000D03*
X211328000Y-125857000D03*
X210058000Y-125857000D03*
X208788000Y-125857000D03*
X207518000Y-125857000D03*
X206248000Y-125857000D03*
X204978000Y-125857000D03*
X203708000Y-125857000D03*
X202438000Y-125857000D03*
X201168000Y-125857000D03*
X199898000Y-125857000D03*
X198628000Y-125857000D03*
X197358000Y-125857000D03*
X196088000Y-125857000D03*
X194818000Y-125857000D03*
X193548000Y-125857000D03*
X192278000Y-125857000D03*
X191008000Y-125857000D03*
X189738000Y-125857000D03*
X188468000Y-125857000D03*
X187198000Y-125857000D03*
X185928000Y-125857000D03*
D11*
X170942000Y-23876000D03*
X168402000Y-23876000D03*
D12*
X163322000Y-23876000D03*
D11*
X165862000Y-23876000D03*
X294640000Y-151384000D03*
X292100000Y-151384000D03*
D12*
X287020000Y-151384000D03*
D11*
X289560000Y-151384000D03*
D28*
X76962000Y-64262000D03*
X76962000Y-69262000D03*
D29*
X298602000Y-143002000D03*
X292202000Y-143002000D03*
X294284000Y-125730000D03*
X287884000Y-125730000D03*
X5944000Y-44450000D03*
X12344000Y-44450000D03*
X5944000Y-39370000D03*
X12344000Y-39370000D03*
X229210000Y-40132000D03*
X235610000Y-40132000D03*
X166980000Y-18288000D03*
X173380000Y-18288000D03*
X67666000Y-24638000D03*
X74066000Y-24638000D03*
D24*
X222693500Y-57150000D03*
D16*
X239776000Y-55307500D03*
X238506000Y-55307500D03*
X237236000Y-55307500D03*
X235966000Y-55307500D03*
X234696000Y-55307500D03*
X233426000Y-55307500D03*
X232156000Y-55307500D03*
X230886000Y-55307500D03*
X229616000Y-55307500D03*
X228346000Y-55307500D03*
X227076000Y-55307500D03*
X225806000Y-55307500D03*
X224536000Y-55307500D03*
X224536000Y-74232500D03*
X225806000Y-74232500D03*
X227076000Y-74232500D03*
X228346000Y-74232500D03*
X229616000Y-74232500D03*
X230886000Y-74232500D03*
X232156000Y-74232500D03*
X233426000Y-74232500D03*
X234696000Y-74232500D03*
X235966000Y-74232500D03*
X237236000Y-74232500D03*
X238506000Y-74232500D03*
X239776000Y-74232500D03*
D24*
X222693500Y-58420000D03*
X222693500Y-59690000D03*
X222693500Y-60960000D03*
X222693500Y-62230000D03*
X222693500Y-63500000D03*
X222693500Y-64770000D03*
X222693500Y-66040000D03*
X222693500Y-67310000D03*
X222693500Y-68580000D03*
X222693500Y-69850000D03*
X222693500Y-71120000D03*
X222693500Y-72390000D03*
X241618500Y-72390000D03*
X241618500Y-71120000D03*
X241618500Y-69850000D03*
X241618500Y-68580000D03*
X241618500Y-67310000D03*
X241618500Y-66040000D03*
X241618500Y-64770000D03*
X241618500Y-63500000D03*
X241618500Y-62230000D03*
X241618500Y-60960000D03*
X241618500Y-59690000D03*
X241618500Y-58420000D03*
X241618500Y-57150000D03*
D16*
X100330000Y-53783500D03*
D24*
X102172500Y-70866000D03*
X102172500Y-69596000D03*
X102172500Y-68326000D03*
X102172500Y-67056000D03*
X102172500Y-65786000D03*
X102172500Y-64516000D03*
X102172500Y-63246000D03*
X102172500Y-61976000D03*
X102172500Y-60706000D03*
X102172500Y-59436000D03*
X102172500Y-58166000D03*
X102172500Y-56896000D03*
X102172500Y-55626000D03*
X83247500Y-55626000D03*
X83247500Y-56896000D03*
X83247500Y-58166000D03*
X83247500Y-59436000D03*
X83247500Y-60706000D03*
X83247500Y-61976000D03*
X83247500Y-63246000D03*
X83247500Y-64516000D03*
X83247500Y-65786000D03*
X83247500Y-67056000D03*
X83247500Y-68326000D03*
X83247500Y-69596000D03*
X83247500Y-70866000D03*
D16*
X99060000Y-53783500D03*
X97790000Y-53783500D03*
X96520000Y-53783500D03*
X95250000Y-53783500D03*
X93980000Y-53783500D03*
X92710000Y-53783500D03*
X91440000Y-53783500D03*
X90170000Y-53783500D03*
X88900000Y-53783500D03*
X87630000Y-53783500D03*
X86360000Y-53783500D03*
X85090000Y-53783500D03*
X85090000Y-72708500D03*
X86360000Y-72708500D03*
X87630000Y-72708500D03*
X88900000Y-72708500D03*
X90170000Y-72708500D03*
X91440000Y-72708500D03*
X92710000Y-72708500D03*
X93980000Y-72708500D03*
X95250000Y-72708500D03*
X96520000Y-72708500D03*
X97790000Y-72708500D03*
X99060000Y-72708500D03*
X100330000Y-72708500D03*
D30*
X154686000Y-65954000D03*
X154686000Y-61554000D03*
D31*
X112436000Y-48260000D03*
X108036000Y-48260000D03*
D30*
X220726000Y-36662000D03*
X220726000Y-41062000D03*
D11*
X186182000Y-33274000D03*
D12*
X186182000Y-28194000D03*
D18*
X82929000Y-6812000D03*
X85699000Y-6812000D03*
X88469000Y-6812000D03*
X91239000Y-6812000D03*
X94009000Y-6812000D03*
X96779000Y-6812000D03*
X99549000Y-6812000D03*
X102319000Y-6812000D03*
X105089000Y-6812000D03*
X107859000Y-6812000D03*
X110629000Y-6812000D03*
X81544000Y-9652000D03*
X84314000Y-9652000D03*
X87084000Y-9652000D03*
X89854000Y-9652000D03*
X92624000Y-9652000D03*
X95394000Y-9652000D03*
X98164000Y-9652000D03*
X100934000Y-9652000D03*
X103704000Y-9652000D03*
X106474000Y-9652000D03*
D19*
X74614000Y-8232000D03*
X118944000Y-8232000D03*
D20*
X74614000Y-8232000D03*
X118944000Y-8232000D03*
D18*
X109244000Y-9652000D03*
D21*
X112014000Y-9652000D03*
D11*
X59690000Y-58266000D03*
D12*
X74930000Y-60706000D03*
D11*
X74930000Y-55826000D03*
D16*
X25400000Y-64776000D03*
X26670000Y-64776000D03*
X27940000Y-64776000D03*
X29210000Y-64776000D03*
X30480000Y-64776000D03*
X31750000Y-64776000D03*
X33020000Y-64776000D03*
X34290000Y-64776000D03*
X35560000Y-64776000D03*
X36830000Y-64776000D03*
X38100000Y-64776000D03*
X39370000Y-64776000D03*
X39370000Y-71876000D03*
X38100000Y-71876000D03*
X36830000Y-71876000D03*
X35560000Y-71876000D03*
X34290000Y-71876000D03*
X33020000Y-71876000D03*
X31750000Y-71876000D03*
X30480000Y-71876000D03*
X27940000Y-71876000D03*
X29210000Y-71876000D03*
X26670000Y-71876000D03*
X25400000Y-71876000D03*
D24*
X153226500Y-73406000D03*
X153226500Y-74676000D03*
X153226500Y-75946000D03*
X153226500Y-77216000D03*
X153226500Y-78486000D03*
X153226500Y-79756000D03*
X153226500Y-81026000D03*
X153226500Y-82296000D03*
X153226500Y-83566000D03*
X153226500Y-84836000D03*
X153226500Y-86106000D03*
X153226500Y-87376000D03*
X153226500Y-88646000D03*
X153226500Y-89916000D03*
X153226500Y-91186000D03*
X153226500Y-92456000D03*
X153226500Y-93726000D03*
X153226500Y-94996000D03*
X153226500Y-96266000D03*
X153226500Y-97536000D03*
X153226500Y-98806000D03*
X124141500Y-98806000D03*
X124141500Y-97536000D03*
X124141500Y-96266000D03*
X124141500Y-94996000D03*
X124141500Y-93726000D03*
X124141500Y-92456000D03*
X124141500Y-91186000D03*
X124141500Y-89916000D03*
X124141500Y-88646000D03*
X124141500Y-87376000D03*
X124141500Y-86106000D03*
X124141500Y-84836000D03*
X124141500Y-83566000D03*
X124141500Y-82296000D03*
X124141500Y-81026000D03*
X124141500Y-79756000D03*
X124141500Y-78486000D03*
X124141500Y-77216000D03*
X124141500Y-75946000D03*
X124141500Y-74676000D03*
D16*
X151384000Y-100648500D03*
X150114000Y-100648500D03*
X148844000Y-100648500D03*
X147574000Y-100648500D03*
X146304000Y-100648500D03*
X145034000Y-100648500D03*
X143764000Y-100648500D03*
X142494000Y-100648500D03*
X141224000Y-100648500D03*
X139954000Y-100648500D03*
X138684000Y-100648500D03*
X137414000Y-100648500D03*
X136144000Y-100648500D03*
X134874000Y-100648500D03*
X133604000Y-100648500D03*
X132334000Y-100648500D03*
X131064000Y-100648500D03*
X129794000Y-100648500D03*
X128524000Y-100648500D03*
X127254000Y-100648500D03*
X125984000Y-100648500D03*
X125984000Y-71563500D03*
X127254000Y-71563500D03*
X128524000Y-71563500D03*
X129794000Y-71563500D03*
X131064000Y-71563500D03*
X132334000Y-71563500D03*
X133604000Y-71563500D03*
X134874000Y-71563500D03*
X136144000Y-71563500D03*
X137414000Y-71563500D03*
X138684000Y-71563500D03*
X139954000Y-71563500D03*
X141224000Y-71563500D03*
X142494000Y-71563500D03*
X143764000Y-71563500D03*
X145034000Y-71563500D03*
X146304000Y-71563500D03*
X147574000Y-71563500D03*
X148844000Y-71563500D03*
X150114000Y-71563500D03*
D24*
X124141500Y-73406000D03*
D16*
X151384000Y-71563500D03*
D24*
X118553500Y-147066000D03*
X118553500Y-145796000D03*
X118553500Y-144526000D03*
X118553500Y-143256000D03*
X118553500Y-141986000D03*
X118553500Y-140716000D03*
X118553500Y-139446000D03*
X118553500Y-138176000D03*
X118553500Y-136906000D03*
X118553500Y-135636000D03*
X118553500Y-134366000D03*
X118553500Y-133096000D03*
X118553500Y-131826000D03*
X118553500Y-130556000D03*
X118553500Y-129286000D03*
X118553500Y-128016000D03*
X118553500Y-126746000D03*
X118553500Y-125476000D03*
X118553500Y-124206000D03*
X118553500Y-122936000D03*
X118553500Y-121666000D03*
X147638500Y-121666000D03*
X147638500Y-122936000D03*
X147638500Y-124206000D03*
X147638500Y-125476000D03*
X147638500Y-126746000D03*
X147638500Y-128016000D03*
X147638500Y-129286000D03*
X147638500Y-130556000D03*
X147638500Y-131826000D03*
X147638500Y-133096000D03*
X147638500Y-134366000D03*
X147638500Y-135636000D03*
X147638500Y-136906000D03*
X147638500Y-138176000D03*
X147638500Y-139446000D03*
X147638500Y-140716000D03*
X147638500Y-141986000D03*
X147638500Y-143256000D03*
X147638500Y-144526000D03*
X147638500Y-145796000D03*
D16*
X120396000Y-119823500D03*
X121666000Y-119823500D03*
X122936000Y-119823500D03*
X124206000Y-119823500D03*
X125476000Y-119823500D03*
X126746000Y-119823500D03*
X128016000Y-119823500D03*
X129286000Y-119823500D03*
X130556000Y-119823500D03*
X131826000Y-119823500D03*
X133096000Y-119823500D03*
X134366000Y-119823500D03*
X135636000Y-119823500D03*
X136906000Y-119823500D03*
X138176000Y-119823500D03*
X139446000Y-119823500D03*
X140716000Y-119823500D03*
X141986000Y-119823500D03*
X143256000Y-119823500D03*
X144526000Y-119823500D03*
X145796000Y-119823500D03*
X145796000Y-148908500D03*
X144526000Y-148908500D03*
X143256000Y-148908500D03*
X141986000Y-148908500D03*
X140716000Y-148908500D03*
X139446000Y-148908500D03*
X138176000Y-148908500D03*
X136906000Y-148908500D03*
X135636000Y-148908500D03*
X134366000Y-148908500D03*
X133096000Y-148908500D03*
X131826000Y-148908500D03*
X130556000Y-148908500D03*
X129286000Y-148908500D03*
X128016000Y-148908500D03*
X126746000Y-148908500D03*
X125476000Y-148908500D03*
X124206000Y-148908500D03*
X122936000Y-148908500D03*
X121666000Y-148908500D03*
D24*
X147638500Y-147066000D03*
D16*
X120396000Y-148908500D03*
X95885000Y-87200000D03*
X94615000Y-87200000D03*
X93345000Y-87200000D03*
X92075000Y-87200000D03*
X90805000Y-87200000D03*
X89535000Y-87200000D03*
X88265000Y-87200000D03*
X86995000Y-87200000D03*
X85725000Y-87200000D03*
X84455000Y-87200000D03*
X84455000Y-77900000D03*
X85725000Y-77900000D03*
X86995000Y-77900000D03*
X88265000Y-77900000D03*
X89535000Y-77900000D03*
X90805000Y-77900000D03*
X92075000Y-77900000D03*
X93345000Y-77900000D03*
X94615000Y-77900000D03*
X95885000Y-77900000D03*
X201041000Y-72976000D03*
X199771000Y-72976000D03*
X198501000Y-72976000D03*
X197231000Y-72976000D03*
X195961000Y-72976000D03*
X194691000Y-72976000D03*
X193421000Y-72976000D03*
X192151000Y-72976000D03*
X190881000Y-72976000D03*
X189611000Y-72976000D03*
X189611000Y-63676000D03*
X190881000Y-63676000D03*
X192151000Y-63676000D03*
X193421000Y-63676000D03*
X194691000Y-63676000D03*
X195961000Y-63676000D03*
X197231000Y-63676000D03*
X198501000Y-63676000D03*
X199771000Y-63676000D03*
X201041000Y-63676000D03*
D24*
X91264000Y-32893000D03*
X91264000Y-34163000D03*
X91264000Y-35433000D03*
X91264000Y-36703000D03*
X91264000Y-37973000D03*
X91264000Y-39243000D03*
X91264000Y-40513000D03*
X91264000Y-41783000D03*
X91264000Y-43053000D03*
X91264000Y-44323000D03*
X81964000Y-44323000D03*
X81964000Y-43053000D03*
X81964000Y-41783000D03*
X81964000Y-40513000D03*
X81964000Y-39243000D03*
X81964000Y-37973000D03*
X81964000Y-36703000D03*
X81964000Y-35433000D03*
X81964000Y-34163000D03*
X81964000Y-32893000D03*
X115648000Y-32639000D03*
X115648000Y-33909000D03*
X115648000Y-35179000D03*
X115648000Y-36449000D03*
X115648000Y-37719000D03*
X115648000Y-38989000D03*
X115648000Y-40259000D03*
X115648000Y-41529000D03*
X115648000Y-42799000D03*
X115648000Y-44069000D03*
X106348000Y-44069000D03*
X106348000Y-42799000D03*
X106348000Y-41529000D03*
X106348000Y-40259000D03*
X106348000Y-38989000D03*
X106348000Y-37719000D03*
X106348000Y-36449000D03*
X106348000Y-35179000D03*
X106348000Y-33909000D03*
X106348000Y-32639000D03*
D16*
X19050000Y-82980000D03*
X20320000Y-82980000D03*
X21590000Y-82980000D03*
X22860000Y-82980000D03*
X24130000Y-82980000D03*
X25400000Y-82980000D03*
X26670000Y-82980000D03*
X27940000Y-82980000D03*
X29210000Y-82980000D03*
X30480000Y-82980000D03*
X30480000Y-92280000D03*
X29210000Y-92280000D03*
X27940000Y-92280000D03*
X26670000Y-92280000D03*
X25400000Y-92280000D03*
X24130000Y-92280000D03*
X22860000Y-92280000D03*
X21590000Y-92280000D03*
X20320000Y-92280000D03*
X19050000Y-92280000D03*
X33782000Y-82980000D03*
X35052000Y-82980000D03*
X36322000Y-82980000D03*
X37592000Y-82980000D03*
X38862000Y-82980000D03*
X40132000Y-82980000D03*
X41402000Y-82980000D03*
X42672000Y-82980000D03*
X43942000Y-82980000D03*
X45212000Y-82980000D03*
X45212000Y-92280000D03*
X43942000Y-92280000D03*
X42672000Y-92280000D03*
X41402000Y-92280000D03*
X40132000Y-92280000D03*
X38862000Y-92280000D03*
X37592000Y-92280000D03*
X36322000Y-92280000D03*
X35052000Y-92280000D03*
X33782000Y-92280000D03*
X4318000Y-82980000D03*
X5588000Y-82980000D03*
X6858000Y-82980000D03*
X8128000Y-82980000D03*
X9398000Y-82980000D03*
X10668000Y-82980000D03*
X11938000Y-82980000D03*
X13208000Y-82980000D03*
X14478000Y-82980000D03*
X15748000Y-82980000D03*
X15748000Y-92280000D03*
X14478000Y-92280000D03*
X13208000Y-92280000D03*
X11938000Y-92280000D03*
X10668000Y-92280000D03*
X9398000Y-92280000D03*
X8128000Y-92280000D03*
X6858000Y-92280000D03*
X5588000Y-92280000D03*
X4318000Y-92280000D03*
X22479000Y-170512000D03*
X21209000Y-170512000D03*
X19939000Y-170512000D03*
X18669000Y-170512000D03*
X17399000Y-170512000D03*
X16129000Y-170512000D03*
X14859000Y-170512000D03*
X13589000Y-170512000D03*
X12319000Y-170512000D03*
X11049000Y-170512000D03*
X11049000Y-161212000D03*
X12319000Y-161212000D03*
X13589000Y-161212000D03*
X14859000Y-161212000D03*
X16129000Y-161212000D03*
X17399000Y-161212000D03*
X18669000Y-161212000D03*
X19939000Y-161212000D03*
X21209000Y-161212000D03*
X22479000Y-161212000D03*
X38735000Y-170512000D03*
X37465000Y-170512000D03*
X36195000Y-170512000D03*
X34925000Y-170512000D03*
X33655000Y-170512000D03*
X32385000Y-170512000D03*
X31115000Y-170512000D03*
X29845000Y-170512000D03*
X28575000Y-170512000D03*
X27305000Y-170512000D03*
X27305000Y-161212000D03*
X28575000Y-161212000D03*
X29845000Y-161212000D03*
X31115000Y-161212000D03*
X32385000Y-161212000D03*
X33655000Y-161212000D03*
X34925000Y-161212000D03*
X36195000Y-161212000D03*
X37465000Y-161212000D03*
X38735000Y-161212000D03*
X53975000Y-170512000D03*
X52705000Y-170512000D03*
X51435000Y-170512000D03*
X50165000Y-170512000D03*
X48895000Y-170512000D03*
X47625000Y-170512000D03*
X46355000Y-170512000D03*
X45085000Y-170512000D03*
X43815000Y-170512000D03*
X42545000Y-170512000D03*
X42545000Y-161212000D03*
X43815000Y-161212000D03*
X45085000Y-161212000D03*
X46355000Y-161212000D03*
X47625000Y-161212000D03*
X48895000Y-161212000D03*
X50165000Y-161212000D03*
X51435000Y-161212000D03*
X52705000Y-161212000D03*
X53975000Y-161212000D03*
X234061000Y-103758000D03*
X235331000Y-103758000D03*
X236601000Y-103758000D03*
X237871000Y-103758000D03*
X239141000Y-103758000D03*
X240411000Y-103758000D03*
X241681000Y-103758000D03*
X242951000Y-103758000D03*
X244221000Y-103758000D03*
X245491000Y-103758000D03*
X246761000Y-103758000D03*
X248031000Y-103758000D03*
X249301000Y-103758000D03*
X250571000Y-103758000D03*
X251841000Y-103758000D03*
X253111000Y-103758000D03*
X254381000Y-103758000D03*
X255651000Y-103758000D03*
X256921000Y-103758000D03*
X258191000Y-103758000D03*
X258191000Y-113158000D03*
X256921000Y-113158000D03*
X255651000Y-113158000D03*
X254381000Y-113158000D03*
X253111000Y-113158000D03*
X251841000Y-113158000D03*
X250571000Y-113158000D03*
X249301000Y-113158000D03*
X248031000Y-113158000D03*
X246761000Y-113158000D03*
X245491000Y-113158000D03*
X244221000Y-113158000D03*
X242951000Y-113158000D03*
X241681000Y-113158000D03*
X240411000Y-113158000D03*
X239141000Y-113158000D03*
X237871000Y-113158000D03*
X236601000Y-113158000D03*
X235331000Y-113158000D03*
X234061000Y-113158000D03*
X234061000Y-89788000D03*
X235331000Y-89788000D03*
X236601000Y-89788000D03*
X237871000Y-89788000D03*
X239141000Y-89788000D03*
X240411000Y-89788000D03*
X241681000Y-89788000D03*
X242951000Y-89788000D03*
X244221000Y-89788000D03*
X245491000Y-89788000D03*
X246761000Y-89788000D03*
X248031000Y-89788000D03*
X249301000Y-89788000D03*
X250571000Y-89788000D03*
X251841000Y-89788000D03*
X253111000Y-89788000D03*
X254381000Y-89788000D03*
X255651000Y-89788000D03*
X256921000Y-89788000D03*
X258191000Y-89788000D03*
X258191000Y-99188000D03*
X256921000Y-99188000D03*
X255651000Y-99188000D03*
X254381000Y-99188000D03*
X253111000Y-99188000D03*
X251841000Y-99188000D03*
X250571000Y-99188000D03*
X249301000Y-99188000D03*
X248031000Y-99188000D03*
X246761000Y-99188000D03*
X245491000Y-99188000D03*
X244221000Y-99188000D03*
X242951000Y-99188000D03*
X241681000Y-99188000D03*
X240411000Y-99188000D03*
X239141000Y-99188000D03*
X237871000Y-99188000D03*
X236601000Y-99188000D03*
X235331000Y-99188000D03*
X234061000Y-99188000D03*
D32*
X27686000Y-40634000D03*
X27686000Y-46234000D03*
X42926000Y-40634000D03*
X42926000Y-46234000D03*
X35306000Y-40634000D03*
X35306000Y-46234000D03*
X135128000Y-14726000D03*
X135128000Y-20326000D03*
X307594000Y-60954000D03*
X307594000Y-66554000D03*
X143256000Y-14726000D03*
X143256000Y-20326000D03*
X142494000Y-40380000D03*
X142494000Y-45980000D03*
X134874000Y-40380000D03*
X134874000Y-45980000D03*
D33*
X302635000Y-54864000D03*
X308235000Y-54864000D03*
D32*
X7874000Y-55886000D03*
X7874000Y-50286000D03*
D34*
X281432000Y-56982000D03*
X281432000Y-61382000D03*
X235204000Y-44282000D03*
X235204000Y-48682000D03*
D28*
X233346000Y-22098000D03*
D35*
X228346000Y-22098000D03*
D28*
X21764000Y-42926000D03*
D35*
X16764000Y-42926000D03*
D28*
X60024000Y-18542000D03*
D35*
X65024000Y-18542000D03*
D36*
X214818000Y-22876000D03*
X212918000Y-22876000D03*
X213868000Y-24876000D03*
X114996000Y-25670000D03*
X113096000Y-25670000D03*
X114046000Y-27670000D03*
X302448000Y-63516000D03*
X300548000Y-63516000D03*
X301498000Y-65516000D03*
X272476000Y-54880000D03*
X270576000Y-54880000D03*
X271526000Y-56880000D03*
X21270000Y-65294000D03*
X19370000Y-65294000D03*
X20320000Y-67294000D03*
X298130000Y-63516000D03*
X296230000Y-63516000D03*
X297180000Y-65516000D03*
X293558000Y-63516000D03*
X291658000Y-63516000D03*
X292608000Y-65516000D03*
X270952000Y-109998000D03*
X269052000Y-109998000D03*
X270002000Y-111998000D03*
X41844000Y-98822000D03*
X39944000Y-98822000D03*
X40894000Y-100822000D03*
X21270000Y-72152000D03*
X19370000Y-72152000D03*
X20320000Y-74152000D03*
X275016000Y-109998000D03*
X273116000Y-109998000D03*
X274066000Y-111998000D03*
X275016000Y-115078000D03*
X273116000Y-115078000D03*
X274066000Y-117078000D03*
X272476000Y-59452000D03*
X270576000Y-59452000D03*
X271526000Y-61452000D03*
X72832000Y-66310000D03*
X70932000Y-66310000D03*
X71882000Y-68310000D03*
X54036000Y-98822000D03*
X52136000Y-98822000D03*
X53086000Y-100822000D03*
X49972000Y-98822000D03*
X48072000Y-98822000D03*
X49022000Y-100822000D03*
X95184000Y-27194000D03*
X93284000Y-27194000D03*
X94234000Y-29194000D03*
X270952000Y-115078000D03*
X269052000Y-115078000D03*
X270002000Y-117078000D03*
X45908000Y-98822000D03*
X44008000Y-98822000D03*
X44958000Y-100822000D03*
X31684000Y-58436000D03*
X29784000Y-58436000D03*
X30734000Y-60436000D03*
X130490000Y-16780000D03*
X128590000Y-16780000D03*
X129540000Y-18780000D03*
X61910000Y-24908000D03*
X60010000Y-24908000D03*
X60960000Y-26908000D03*
D37*
X278764000Y-78740000D03*
D10*
G36*
X274195000Y-76216000D02*
G01*
X277243000Y-76216000D01*
X277243000Y-76581000D01*
X279529000Y-76581000D01*
X279529000Y-77851000D01*
X277243000Y-77851000D01*
X277243000Y-78216000D01*
X274195000Y-78216000D01*
X274195000Y-76216000D01*
G37*
D37*
X278764000Y-75692000D03*
D38*
X293116000Y-68912000D03*
X293116000Y-72312000D03*
X308356000Y-73836000D03*
X308356000Y-70436000D03*
X300736000Y-68912000D03*
X300736000Y-72312000D03*
X281686000Y-92534000D03*
X281686000Y-95934000D03*
X302006000Y-16334000D03*
X302006000Y-19734000D03*
X284226000Y-100154000D03*
X284226000Y-103554000D03*
X284226000Y-92534000D03*
X284226000Y-95934000D03*
X263906000Y-16334000D03*
X263906000Y-19734000D03*
X268986000Y-16334000D03*
X268986000Y-19734000D03*
X286766000Y-16334000D03*
X286766000Y-19734000D03*
X291846000Y-16334000D03*
X291846000Y-19734000D03*
X296926000Y-16334000D03*
X296926000Y-19734000D03*
X266446000Y-16334000D03*
X266446000Y-19734000D03*
X271526000Y-16334000D03*
X271526000Y-19734000D03*
X274066000Y-16334000D03*
X274066000Y-19734000D03*
X276606000Y-16334000D03*
X276606000Y-19734000D03*
X279146000Y-16334000D03*
X279146000Y-19734000D03*
X281686000Y-16334000D03*
X281686000Y-19734000D03*
X284226000Y-16334000D03*
X284226000Y-19734000D03*
X289306000Y-16334000D03*
X289306000Y-19734000D03*
X294386000Y-16334000D03*
X294386000Y-19734000D03*
X299466000Y-16334000D03*
X299466000Y-19734000D03*
X307086000Y-16334000D03*
X307086000Y-19734000D03*
X304546000Y-16334000D03*
X304546000Y-19734000D03*
X210566000Y-110314000D03*
X210566000Y-113714000D03*
D39*
X265762000Y-103632000D03*
X269162000Y-103632000D03*
D38*
X295656000Y-68912000D03*
X295656000Y-72312000D03*
X288036000Y-72312000D03*
X288036000Y-68912000D03*
X298196000Y-68912000D03*
X298196000Y-72312000D03*
X290576000Y-68912000D03*
X290576000Y-72312000D03*
X303276000Y-68912000D03*
X303276000Y-72312000D03*
X305816000Y-73836000D03*
X305816000Y-70436000D03*
X281686000Y-103554000D03*
X281686000Y-100154000D03*
D39*
X265762000Y-106172000D03*
X269162000Y-106172000D03*
X266622000Y-108712000D03*
X263222000Y-108712000D03*
X266622000Y-111252000D03*
X263222000Y-111252000D03*
X266622000Y-113792000D03*
X263222000Y-113792000D03*
X272366000Y-106172000D03*
X275766000Y-106172000D03*
X275766000Y-103632000D03*
X272366000Y-103632000D03*
X263222000Y-116332000D03*
X266622000Y-116332000D03*
D38*
X191262000Y-101776000D03*
X191262000Y-98376000D03*
X203454000Y-101014000D03*
X203454000Y-97614000D03*
X286766000Y-100154000D03*
X286766000Y-103554000D03*
X191262000Y-95426000D03*
X191262000Y-92026000D03*
X224790000Y-91616000D03*
X224790000Y-88216000D03*
X194310000Y-102792000D03*
X194310000Y-99392000D03*
X209550000Y-97360000D03*
X209550000Y-100760000D03*
X224790000Y-81866000D03*
X224790000Y-85266000D03*
X194310000Y-96442000D03*
X194310000Y-93042000D03*
X207010000Y-100252000D03*
X207010000Y-96852000D03*
X197358000Y-103808000D03*
X197358000Y-100408000D03*
X197358000Y-97458000D03*
X197358000Y-94058000D03*
X281686000Y-141302000D03*
X281686000Y-144702000D03*
X200406000Y-106348000D03*
X200406000Y-102948000D03*
X200406000Y-99998000D03*
X200406000Y-96598000D03*
X285242000Y-57228000D03*
X285242000Y-60628000D03*
D39*
X150798000Y-49784000D03*
X147398000Y-49784000D03*
D38*
X148082000Y-61546000D03*
X148082000Y-64946000D03*
X120904000Y-61546000D03*
X120904000Y-64946000D03*
X278892000Y-52500000D03*
X278892000Y-49100000D03*
D39*
X98474000Y-37846000D03*
X95074000Y-37846000D03*
X98474000Y-40386000D03*
X95074000Y-40386000D03*
X98474000Y-42926000D03*
X95074000Y-42926000D03*
D38*
X192278000Y-16334000D03*
X192278000Y-19734000D03*
X128778000Y-50468000D03*
X128778000Y-47068000D03*
X135382000Y-61546000D03*
X135382000Y-64946000D03*
X85598000Y-16334000D03*
X85598000Y-19734000D03*
X184658000Y-16334000D03*
X184658000Y-19734000D03*
X77978000Y-16334000D03*
X77978000Y-19734000D03*
X224536000Y-48690000D03*
X224536000Y-45290000D03*
X80518000Y-16334000D03*
X80518000Y-19734000D03*
D39*
X75262000Y-32766000D03*
X78662000Y-32766000D03*
D38*
X277622000Y-57228000D03*
X277622000Y-60628000D03*
X109474000Y-99490000D03*
X109474000Y-96090000D03*
X98298000Y-16334000D03*
X98298000Y-19734000D03*
X140462000Y-61546000D03*
X140462000Y-64946000D03*
X145542000Y-61546000D03*
X145542000Y-64946000D03*
X130302000Y-61546000D03*
X130302000Y-64946000D03*
X137922000Y-61546000D03*
X137922000Y-64946000D03*
X118110000Y-99490000D03*
X118110000Y-96090000D03*
D39*
X198706000Y-58928000D03*
X202106000Y-58928000D03*
D38*
X189738000Y-16334000D03*
X189738000Y-19734000D03*
X287274000Y-49100000D03*
X287274000Y-52500000D03*
D39*
X284910000Y-46228000D03*
X281510000Y-46228000D03*
D38*
X93218000Y-16334000D03*
X93218000Y-19734000D03*
D39*
X270080000Y-45466000D03*
X273480000Y-45466000D03*
D38*
X204978000Y-16334000D03*
X204978000Y-19734000D03*
X14224000Y-67994000D03*
X14224000Y-64594000D03*
X242697000Y-41578000D03*
X242697000Y-38178000D03*
X140462000Y-58342000D03*
X140462000Y-54942000D03*
X137922000Y-58342000D03*
X137922000Y-54942000D03*
X100838000Y-28878000D03*
X100838000Y-25478000D03*
D39*
X95074000Y-32766000D03*
X98474000Y-32766000D03*
X116508000Y-77216000D03*
X113108000Y-77216000D03*
X75262000Y-42926000D03*
X78662000Y-42926000D03*
D38*
X245110000Y-45290000D03*
X245110000Y-48690000D03*
X132842000Y-58342000D03*
X132842000Y-54942000D03*
D39*
X124382000Y-46482000D03*
X120982000Y-46482000D03*
X124382000Y-41402000D03*
X120982000Y-41402000D03*
X75262000Y-40386000D03*
X78662000Y-40386000D03*
D38*
X240030000Y-45290000D03*
X240030000Y-48690000D03*
X16764000Y-71452000D03*
X16764000Y-74852000D03*
X135382000Y-58342000D03*
X135382000Y-54942000D03*
X110998000Y-19734000D03*
X110998000Y-16334000D03*
X14224000Y-71452000D03*
X14224000Y-74852000D03*
X126238000Y-16334000D03*
X126238000Y-19734000D03*
X194818000Y-16334000D03*
X194818000Y-19734000D03*
X239522000Y-24462000D03*
X239522000Y-27862000D03*
X127762000Y-58342000D03*
X127762000Y-54942000D03*
X95758000Y-16334000D03*
X95758000Y-19734000D03*
X150622000Y-61546000D03*
X150622000Y-64946000D03*
D39*
X75262000Y-37846000D03*
X78662000Y-37846000D03*
X75262000Y-35306000D03*
X78662000Y-35306000D03*
D38*
X207518000Y-19734000D03*
X207518000Y-16334000D03*
X100838000Y-16334000D03*
X100838000Y-19734000D03*
X202438000Y-19734000D03*
X202438000Y-16334000D03*
X177038000Y-16334000D03*
X177038000Y-19734000D03*
X227076000Y-45290000D03*
X227076000Y-48690000D03*
X118618000Y-16334000D03*
X118618000Y-19734000D03*
X110998000Y-25478000D03*
X110998000Y-28878000D03*
X284734000Y-52500000D03*
X284734000Y-49100000D03*
X287528000Y-60628000D03*
X287528000Y-57228000D03*
X123698000Y-16334000D03*
X123698000Y-19734000D03*
X120904000Y-67896000D03*
X120904000Y-71296000D03*
X90678000Y-16334000D03*
X90678000Y-19734000D03*
X54864000Y-113870000D03*
X54864000Y-117270000D03*
X182118000Y-19734000D03*
X182118000Y-16334000D03*
X289814000Y-60628000D03*
X289814000Y-57228000D03*
X242570000Y-45290000D03*
X242570000Y-48690000D03*
X127762000Y-61546000D03*
X127762000Y-64946000D03*
X88138000Y-19734000D03*
X88138000Y-16334000D03*
X143002000Y-58342000D03*
X143002000Y-54942000D03*
X98298000Y-25478000D03*
X98298000Y-28878000D03*
X275082000Y-60628000D03*
X275082000Y-57228000D03*
X113538000Y-16334000D03*
X113538000Y-19734000D03*
X143002000Y-61546000D03*
X143002000Y-64946000D03*
X276352000Y-52500000D03*
X276352000Y-49100000D03*
X103378000Y-16334000D03*
X103378000Y-19734000D03*
X270764000Y-51738000D03*
X270764000Y-48338000D03*
X70358000Y-16334000D03*
X70358000Y-19734000D03*
X83058000Y-19734000D03*
X83058000Y-16334000D03*
X59436000Y-39546000D03*
X59436000Y-36146000D03*
X145542000Y-58342000D03*
X145542000Y-54942000D03*
X121158000Y-19734000D03*
X121158000Y-16334000D03*
X199898000Y-16334000D03*
X199898000Y-19734000D03*
X112268000Y-152830000D03*
X112268000Y-149430000D03*
X114808000Y-102694000D03*
X114808000Y-106094000D03*
X273304000Y-51738000D03*
X273304000Y-48338000D03*
X179578000Y-16334000D03*
X179578000Y-19734000D03*
X108458000Y-16334000D03*
X108458000Y-19734000D03*
X75438000Y-19734000D03*
X75438000Y-16334000D03*
X120904000Y-74246000D03*
X120904000Y-77646000D03*
X282194000Y-52500000D03*
X282194000Y-49100000D03*
X132842000Y-61546000D03*
X132842000Y-64946000D03*
X287274000Y-38022000D03*
X287274000Y-34622000D03*
D39*
X124382000Y-33782000D03*
X120982000Y-33782000D03*
D38*
X187198000Y-16334000D03*
X187198000Y-19734000D03*
X197358000Y-16334000D03*
X197358000Y-19734000D03*
X130302000Y-58342000D03*
X130302000Y-54942000D03*
X105918000Y-19734000D03*
X105918000Y-16334000D03*
X210058000Y-19734000D03*
X210058000Y-16334000D03*
D39*
X124382000Y-43942000D03*
X120982000Y-43942000D03*
X124382000Y-38862000D03*
X120982000Y-38862000D03*
X66978000Y-87884000D03*
X63578000Y-87884000D03*
D38*
X66040000Y-36146000D03*
X66040000Y-39546000D03*
X115570000Y-99490000D03*
X115570000Y-96090000D03*
X212598000Y-19734000D03*
X212598000Y-16334000D03*
X148082000Y-58342000D03*
X148082000Y-54942000D03*
X251206000Y-53516000D03*
X251206000Y-50116000D03*
X163322000Y-16334000D03*
X163322000Y-19734000D03*
X52324000Y-113870000D03*
X52324000Y-117270000D03*
X251968000Y-40054000D03*
X251968000Y-36654000D03*
X50292000Y-109142000D03*
X50292000Y-105742000D03*
D39*
X98474000Y-35306000D03*
X95074000Y-35306000D03*
D38*
X264160000Y-38530000D03*
X264160000Y-35130000D03*
X113030000Y-99490000D03*
X113030000Y-96090000D03*
X43942000Y-105742000D03*
X43942000Y-109142000D03*
D39*
X124382000Y-36322000D03*
X120982000Y-36322000D03*
D38*
X116078000Y-19734000D03*
X116078000Y-16334000D03*
X16764000Y-67994000D03*
X16764000Y-64594000D03*
D40*
X240362000Y-115824000D03*
X243762000Y-115824000D03*
X244270000Y-83058000D03*
X240870000Y-83058000D03*
X256970000Y-115824000D03*
X253570000Y-115824000D03*
X186260000Y-60452000D03*
X189660000Y-60452000D03*
D41*
X230124000Y-48690000D03*
X230124000Y-45290000D03*
X221488000Y-48690000D03*
X221488000Y-45290000D03*
X73406000Y-74754000D03*
X73406000Y-78154000D03*
X99314000Y-80850000D03*
X99314000Y-84250000D03*
X103378000Y-28878000D03*
X103378000Y-25478000D03*
X154686000Y-58596000D03*
X154686000Y-55196000D03*
D40*
X116918000Y-49784000D03*
X120318000Y-49784000D03*
D41*
X62738000Y-36146000D03*
X62738000Y-39546000D03*
X90424000Y-28878000D03*
X90424000Y-25478000D03*
D38*
X67818000Y-127430000D03*
X67818000Y-124030000D03*
D42*
X39878000Y-4699000D03*
X33118000Y-5509000D03*
X46638000Y-5509000D03*
D11*
X36528000Y-8499000D03*
X43228000Y-8499000D03*
X36528000Y-10999000D03*
X43228000Y-10999000D03*
D43*
X55586000Y-24108000D03*
X54078000Y-14408000D03*
X25678000Y-14408000D03*
X25186000Y-24108000D03*
D25*
X5334000Y-24130000D03*
X5334000Y-31242000D03*
X10414000Y-31242000D03*
X10414000Y-24130000D03*
X15494000Y-31242000D03*
X15494000Y-24130000D03*
X20574000Y-31242000D03*
X20574000Y-24130000D03*
D11*
X5334000Y-35306000D03*
X5334000Y-20066000D03*
X9398000Y-35306000D03*
X9398000Y-20066000D03*
X15494000Y-35306000D03*
X15494000Y-20066000D03*
D18*
X5334000Y-31242000D03*
X5334000Y-24130000D03*
X10414000Y-31242000D03*
X10414000Y-24130000D03*
X15494000Y-31242000D03*
X15494000Y-24130000D03*
D11*
X21590000Y-35306000D03*
X21590000Y-20066000D03*
D18*
X20574000Y-24130000D03*
X20574000Y-31242000D03*
D38*
X160782000Y-16334000D03*
X160782000Y-19734000D03*
X150622000Y-58342000D03*
X150622000Y-54942000D03*
D44*
X158496000Y-187960000D03*
D23*
X158496000Y-187960000D03*
D45*
X49054000Y-45122000D03*
X51054000Y-45122000D03*
X49054000Y-47122000D03*
X51054000Y-47122000D03*
X49054000Y-49122000D03*
X51054000Y-49122000D03*
X49054000Y-51122000D03*
X51054000Y-51122000D03*
X49054000Y-53122000D03*
X51054000Y-53122000D03*
X49054000Y-55122000D03*
X51054000Y-55122000D03*
X49054000Y-57122000D03*
X51054000Y-57122000D03*
X49054000Y-59122000D03*
X51054000Y-59122000D03*
X49054000Y-61122000D03*
X51054000Y-61122000D03*
X49054000Y-63122000D03*
X51054000Y-63122000D03*
X49054000Y-65122000D03*
X51054000Y-65122000D03*
X49054000Y-67122000D03*
X51054000Y-67122000D03*
X49054000Y-69122000D03*
X51054000Y-69122000D03*
X49054000Y-71122000D03*
X51054000Y-71122000D03*
X49054000Y-73122000D03*
X51054000Y-73122000D03*
X49054000Y-75122000D03*
X51054000Y-75122000D03*
X49054000Y-77122000D03*
X51054000Y-77122000D03*
X49054000Y-79122000D03*
X51054000Y-79122000D03*
X49054000Y-81122000D03*
X51054000Y-81122000D03*
X49054000Y-83122000D03*
X51054000Y-83122000D03*
X49054000Y-85122000D03*
X51054000Y-85122000D03*
X49054000Y-87122000D03*
D46*
X51054000Y-87122000D03*
D11*
X49022000Y-133858000D03*
X51562000Y-133858000D03*
X54102000Y-133858000D03*
X56642000Y-133858000D03*
X59182000Y-133858000D03*
X61722000Y-133858000D03*
X64262000Y-133858000D03*
X66802000Y-133858000D03*
X69342000Y-133858000D03*
X71882000Y-133858000D03*
X74422000Y-133858000D03*
X76962000Y-133858000D03*
X79502000Y-133858000D03*
X82042000Y-133858000D03*
X84582000Y-133858000D03*
X87122000Y-133858000D03*
X89662000Y-133858000D03*
X92202000Y-133858000D03*
X94742000Y-133858000D03*
X97282000Y-133858000D03*
X99822000Y-133858000D03*
X99822000Y-149098000D03*
X97282000Y-149098000D03*
X94742000Y-149098000D03*
X92202000Y-149098000D03*
X89662000Y-149098000D03*
X87122000Y-149098000D03*
X84582000Y-149098000D03*
X82042000Y-149098000D03*
X79502000Y-149098000D03*
X76962000Y-149098000D03*
X74422000Y-149098000D03*
X71882000Y-149098000D03*
X69342000Y-149098000D03*
X66802000Y-149098000D03*
X64262000Y-149098000D03*
X61722000Y-149098000D03*
X59182000Y-149098000D03*
X56642000Y-149098000D03*
X54102000Y-149098000D03*
X51562000Y-149098000D03*
D12*
X49022000Y-149098000D03*
D45*
X154868000Y-26130000D03*
X153618000Y-24130000D03*
X152368000Y-26130000D03*
X151118000Y-24130000D03*
X149868000Y-26130000D03*
X147368000Y-26130000D03*
X148618000Y-24130000D03*
X146118000Y-24130000D03*
X144868000Y-26130000D03*
X143618000Y-24130000D03*
X142368000Y-26130000D03*
X141118000Y-24130000D03*
X139868000Y-26130000D03*
X138618000Y-24130000D03*
X137368000Y-26130000D03*
X136118000Y-24130000D03*
X134868000Y-26130000D03*
X133618000Y-24130000D03*
X132368000Y-26130000D03*
X131118000Y-24130000D03*
X129868000Y-26130000D03*
X128618000Y-24130000D03*
X127368000Y-26130000D03*
X126118000Y-24130000D03*
X124868000Y-26130000D03*
X123618000Y-24130000D03*
X122368000Y-26130000D03*
X121118000Y-24130000D03*
X119868000Y-26130000D03*
D46*
X118618000Y-24130000D03*
D16*
X292354000Y-60631000D03*
X293624000Y-60631000D03*
X294894000Y-60631000D03*
X296164000Y-60631000D03*
X297434000Y-60631000D03*
X298704000Y-60631000D03*
X299974000Y-60631000D03*
X299974000Y-54431000D03*
X298704000Y-54431000D03*
X297434000Y-54431000D03*
X296164000Y-54431000D03*
X294894000Y-54431000D03*
X293624000Y-54431000D03*
X292354000Y-54431000D03*
X266192000Y-39676000D03*
X267462000Y-39676000D03*
X268732000Y-39676000D03*
X270002000Y-39676000D03*
X271272000Y-39676000D03*
X272542000Y-39676000D03*
X273812000Y-39676000D03*
X273812000Y-33476000D03*
X272542000Y-33476000D03*
X271272000Y-33476000D03*
X270002000Y-33476000D03*
X268732000Y-33476000D03*
X267462000Y-33476000D03*
X266192000Y-33476000D03*
X242824000Y-33580000D03*
X244094000Y-33580000D03*
X245364000Y-33580000D03*
X246634000Y-33580000D03*
X247904000Y-33580000D03*
X249174000Y-33580000D03*
X250444000Y-33580000D03*
X250444000Y-27380000D03*
X249174000Y-27380000D03*
X247904000Y-27380000D03*
X246634000Y-27380000D03*
X245364000Y-27380000D03*
X244094000Y-27380000D03*
X242824000Y-27380000D03*
X253238000Y-33580000D03*
X254508000Y-33580000D03*
X255778000Y-33580000D03*
X257048000Y-33580000D03*
X258318000Y-33580000D03*
X259588000Y-33580000D03*
X260858000Y-33580000D03*
X260858000Y-27380000D03*
X259588000Y-27380000D03*
X258318000Y-27380000D03*
X257048000Y-27380000D03*
X255778000Y-27380000D03*
X254508000Y-27380000D03*
X253238000Y-27380000D03*
X60960000Y-71299000D03*
X62230000Y-71299000D03*
X63500000Y-71299000D03*
X64770000Y-71299000D03*
X66040000Y-71299000D03*
X67310000Y-71299000D03*
X68580000Y-71299000D03*
X68580000Y-65099000D03*
X67310000Y-65099000D03*
X66040000Y-65099000D03*
X64770000Y-65099000D03*
X63500000Y-65099000D03*
X62230000Y-65099000D03*
X60960000Y-65099000D03*
X270510000Y-71680000D03*
X271780000Y-71680000D03*
X273050000Y-71680000D03*
X274320000Y-71680000D03*
X275590000Y-71680000D03*
X276860000Y-71680000D03*
X278130000Y-71680000D03*
X278130000Y-65480000D03*
X276860000Y-65480000D03*
X275590000Y-65480000D03*
X274320000Y-65480000D03*
X273050000Y-65480000D03*
X271780000Y-65480000D03*
X270510000Y-65480000D03*
X89408000Y-165914000D03*
X90678000Y-165914000D03*
X91948000Y-165914000D03*
X93218000Y-165914000D03*
X94488000Y-165914000D03*
X95758000Y-165914000D03*
X97028000Y-165914000D03*
X97028000Y-159714000D03*
X95758000Y-159714000D03*
X94488000Y-159714000D03*
X93218000Y-159714000D03*
X91948000Y-159714000D03*
X90678000Y-159714000D03*
X89408000Y-159714000D03*
D24*
X284786000Y-108585000D03*
X284786000Y-109855000D03*
X284786000Y-111125000D03*
X284786000Y-112395000D03*
X284786000Y-113665000D03*
X284786000Y-114935000D03*
X284786000Y-116205000D03*
X284786000Y-117475000D03*
X278586000Y-117475000D03*
X278586000Y-116205000D03*
X278586000Y-114935000D03*
X278586000Y-113665000D03*
X278586000Y-112395000D03*
X278586000Y-111125000D03*
X278586000Y-109855000D03*
X278586000Y-108585000D03*
D16*
X281559000Y-65480000D03*
X282829000Y-65480000D03*
X284099000Y-65480000D03*
X285369000Y-65480000D03*
X285369000Y-71680000D03*
X284099000Y-71680000D03*
X282829000Y-71680000D03*
X281559000Y-71680000D03*
X70104000Y-98182500D03*
X71374000Y-98182500D03*
X72644000Y-98182500D03*
X73914000Y-98182500D03*
X75184000Y-98182500D03*
X76454000Y-98182500D03*
X77724000Y-98182500D03*
X78994000Y-98182500D03*
X80264000Y-98182500D03*
X81534000Y-98182500D03*
X82804000Y-98182500D03*
X84074000Y-98182500D03*
X85344000Y-98182500D03*
X86614000Y-98182500D03*
X87884000Y-98182500D03*
X89154000Y-98182500D03*
X90424000Y-121527500D03*
X89154000Y-121527500D03*
X87884000Y-121527500D03*
X86614000Y-121527500D03*
X85344000Y-121527500D03*
X84074000Y-121527500D03*
X82804000Y-121527500D03*
X81534000Y-121527500D03*
X80264000Y-121527500D03*
X78994000Y-121527500D03*
X77724000Y-121527500D03*
X76454000Y-121527500D03*
X75184000Y-121527500D03*
X73914000Y-121527500D03*
X72644000Y-121527500D03*
X71374000Y-121527500D03*
X70104000Y-121527500D03*
D24*
X91936500Y-99695000D03*
X91936500Y-100965000D03*
X91936500Y-102235000D03*
X91936500Y-103505000D03*
X91936500Y-104775000D03*
X91936500Y-106045000D03*
X91936500Y-107315000D03*
X91936500Y-108585000D03*
X91936500Y-109855000D03*
X91936500Y-111125000D03*
X91936500Y-112395000D03*
X91936500Y-113665000D03*
X91936500Y-114935000D03*
X91936500Y-116205000D03*
X91936500Y-117475000D03*
X91936500Y-118745000D03*
X91936500Y-120015000D03*
X68591500Y-120015000D03*
X68591500Y-118745000D03*
X68591500Y-117475000D03*
X68591500Y-116205000D03*
X68591500Y-114935000D03*
X68591500Y-113665000D03*
X68591500Y-112395000D03*
X68591500Y-111125000D03*
X68591500Y-109855000D03*
X68591500Y-108585000D03*
X68591500Y-107315000D03*
X68591500Y-106045000D03*
X68591500Y-104775000D03*
X68591500Y-103505000D03*
X68591500Y-102235000D03*
X68591500Y-100965000D03*
D16*
X90424000Y-98182500D03*
D24*
X68591500Y-99695000D03*
D36*
X208788000Y-24876000D03*
X207838000Y-22876000D03*
X209738000Y-22876000D03*
D47*
X142434000Y-5952000D03*
D48*
X146184000Y-9652000D03*
X138684000Y-9652000D03*
D49*
X138684000Y-9652000D03*
X146184000Y-9652000D03*
D50*
X142434000Y-5952000D03*
D47*
X129734000Y-5952000D03*
D48*
X133484000Y-9652000D03*
X125984000Y-9652000D03*
D49*
X125984000Y-9652000D03*
X133484000Y-9652000D03*
D50*
X129734000Y-5952000D03*
D47*
X63694000Y-5952000D03*
D48*
X67444000Y-9652000D03*
X59944000Y-9652000D03*
D49*
X59944000Y-9652000D03*
X67444000Y-9652000D03*
D50*
X63694000Y-5952000D03*
D18*
X306116000Y-134323000D03*
X306116000Y-137093000D03*
X306116000Y-139863000D03*
X306116000Y-142633000D03*
X303276000Y-132938000D03*
X303276000Y-135708000D03*
X303276000Y-138478000D03*
X303276000Y-141248000D03*
D19*
X304696000Y-125978000D03*
X304696000Y-150978000D03*
D21*
X303276000Y-144018000D03*
D20*
X304696000Y-150978000D03*
X304696000Y-125978000D03*
D18*
X306116000Y-102319000D03*
X306116000Y-105089000D03*
X306116000Y-107859000D03*
X306116000Y-110629000D03*
X303276000Y-100934000D03*
X303276000Y-103704000D03*
X303276000Y-106474000D03*
X303276000Y-109244000D03*
D19*
X304696000Y-93974000D03*
X304696000Y-118974000D03*
D21*
X303276000Y-112014000D03*
D20*
X304696000Y-118974000D03*
X304696000Y-93974000D03*
M02*
