M48
INCH,TZ
T1C0.0157
T2C0.0315
T3C0.0394
T4C0.0512
T5C0.0591
T6C0.0906
T7C0.1181
T8C0.1260
T9C0.1378
%
G90
G05
T1
X700Y-9900
X700Y-40500
X700Y-55100
X700Y-61100
X700Y-71400
X2100Y-31700
X2100Y-33600
X2700Y-33800
X2700Y-46000
X2700Y-47900
X2700Y-66100
X2800Y-23800
X3500Y-33900
X3700Y-47300
X3700Y-49900
X4300Y-33700
X4800Y-33700
X5000Y-30300
X5500Y-42100
X6300Y-38700
X6300Y-49800
X6500Y-35400
X6500Y-61100
X6600Y-52300
X6700Y-74100
X6800Y-51800
X6800Y-54900
X6900Y-55400
X7200Y-55800
X7500Y-35600
X7800Y-17200
X7800Y-24700
X8000Y-33700
X8100Y-23700
X8200Y-44600
X8600Y-23500
X8700Y-43500
X8900Y-46200
X8900Y-60200
X8900Y-62200
X9100Y-19100
X9100Y-71000
X9200Y-45000
X9400Y-44000
X9500Y-26900
X9500Y-45500
X9800Y-30300
X10400Y-24800
X10400Y-41500
X10500Y-27200
X10600Y-42500
X10900Y-60200
X10900Y-62400
X11500Y-24700
X11800Y-16400
X11800Y-18700
X11800Y-35500
X12000Y-24700
X12000Y-29100
X12100Y-22300
X12500Y-26600
X12700Y-22300
X12700Y-32800
X12900Y-35800
X13100Y-24200
X13800Y-41800
X13900Y-74100
X14000Y-26300
X14300Y-31500
X14400Y-44700
X14400Y-45500
X14500Y-27500
X14600Y-18900
X14600Y-26300
X14800Y-15200
X14800Y-31800
X14800Y-45000
X15000Y-46500
X15000Y-50900
X15200Y-47000
X15300Y-31500
X15300Y-62400
X15400Y-7200
X15400Y-49500
X15400Y-50000
X15500Y-49000
X15700Y-18200
X15700Y-43800
X15800Y-23000
X15800Y-31800
X16000Y-7200
X16000Y-15200
X16100Y-64200
X16300Y-31500
X16300Y-43800
X16300Y-46600
X16300Y-57700
X16500Y-40700
X16800Y-31800
X16800Y-62400
X17300Y-19900
X17300Y-29800
X17300Y-31500
X17700Y-29400
X17800Y-31800
X18100Y-40700
X18900Y-47900
X19400Y-37100
X19500Y-57500
X19600Y-48400
X19600Y-55600
X19700Y-40700
X19700Y-44600
X19700Y-46400
X19900Y-56000
X20000Y-55300
X20300Y-56300
X20300Y-57500
X20800Y-53500
X21300Y-40700
X21400Y-53500
X21400Y-54700
X21600Y-35900
X21600Y-44000
X21600Y-47900
X21700Y-48400
X21700Y-62000
X21900Y-47500
X22000Y-51500
X22100Y-12500
X22100Y-63600
X22300Y-63200
X22500Y-19500
X22500Y-47500
X22700Y-54700
X22800Y-62700
X22800Y-63200
X22900Y-46100
X22900Y-49100
X22900Y-57500
X22900Y-62200
X23000Y-51800
X23100Y-31100
X23300Y-53500
X23500Y-66000
X23700Y-35500
X23800Y-47500
X23800Y-51400
X24100Y-18700
X24300Y-53500
X24400Y-54400
X24600Y-35400
X24700Y-49100
X24700Y-66200
X24800Y-51100
X24900Y-27100
X25000Y-9300
X25000Y-62200
X25000Y-65800
X25200Y-55100
X25300Y-43600
X25400Y-59700
X25700Y-56800
X25800Y-61900
X25800Y-66500
X26000Y-54000
X26000Y-55700
X26100Y-25000
X26300Y-11300
X26300Y-51400
X26300Y-59700
X26400Y-56500
X26500Y-26700
X26600Y-62500
X26700Y-11700
X26800Y-37600
X26800Y-65800
X27100Y-59700
X27200Y-57700
X27200Y-62500
X27200Y-63200
X27300Y-51400
X27300Y-74700
X27400Y-36900
X27500Y-50600
X27600Y-66400
X27800Y-36500
X27800Y-41800
X27800Y-44200
X27800Y-63400
X27900Y-15900
X28000Y-57900
X28200Y-43800
X28300Y-25300
X28300Y-47100
X28400Y-61900
X28400Y-62900
X28400Y-63600
X28500Y-27900
X28500Y-35800
X28500Y-54500
X28600Y-45900
X28600Y-66100
X28700Y-44600
X28900Y-35400
X29000Y-46900
X29000Y-50600
X29100Y-17700
X29200Y-26500
X29200Y-28200
X29200Y-41300
X29200Y-44100
X29300Y-11700
X29300Y-57000
X29400Y-34900
X29600Y-50300
X29700Y-69000
X29800Y-17900
X30000Y-9600
X30000Y-32700
X30000Y-33900
X30100Y-61100
X30200Y-34700
X30300Y-46500
X30300Y-54100
X30300Y-64400
X30300Y-66500
X30500Y-45800
X30600Y-9500
X30600Y-32300
X30700Y-33500
X31100Y-9500
X31100Y-18100
X31100Y-24900
X31200Y-31900
X31200Y-45800
X31200Y-48900
X31200Y-64400
X31300Y-21900
X31300Y-22400
X31300Y-22900
X31300Y-23400
X31300Y-61100
X31400Y-45000
X31400Y-53500
X31500Y-55600
X31600Y-9500
X31900Y-25500
X31900Y-26100
X32000Y-53500
X32100Y-32200
X32100Y-65300
X32200Y-31600
X32200Y-45100
X32600Y-32600
X32600Y-51300
X32700Y-9800
X32800Y-53500
X32900Y-28500
X33000Y-45300
X33200Y-8700
X33200Y-12300
X33300Y-35700
X33300Y-51000
X33300Y-51600
X33300Y-53500
X33500Y-56300
X33600Y-26400
X33600Y-26900
X33600Y-27400
X33600Y-32300
X33700Y-23400
X33700Y-23900
X33800Y-17600
X33800Y-24900
X33800Y-33000
X33800Y-35100
X33800Y-45500
X33800Y-53500
X33800Y-62300
X33800Y-65300
X33900Y-9500
X33900Y-11500
X34000Y-27700
X34200Y-17300
X34300Y-19500
X34300Y-33500
X34300Y-42100
X34400Y-55500
X34500Y-10000
X34500Y-27700
X34600Y-17600
X34600Y-45800
X34600Y-51900
X34700Y-44900
X34700Y-51300
X34700Y-63700
X34700Y-65800
X34800Y-12300
X34900Y-18700
X35000Y-27700
X35100Y-44500
X35100Y-45300
X35400Y-42700
X35400Y-51300
X35500Y-27700
X35500Y-43900
X35700Y-50100
X35700Y-64400
X35900Y-51300
X36000Y-27700
X36300Y-50100
X36400Y-56900
X36500Y-27700
X36600Y-9800
X36700Y-50700
X37000Y-27700
X37100Y-44400
X37200Y-64400
X37300Y-44900
X37300Y-45400
X37300Y-46700
X37500Y-22100
X37500Y-27700
X37600Y-51200
X37600Y-56300
X37600Y-57400
X37900Y-9500
X38000Y-22100
X38000Y-27700
X38200Y-59600
X38200Y-64400
X38300Y-74700
X38400Y-50100
X38500Y-22100
X38500Y-26800
X38500Y-27700
X38500Y-57400
X38700Y-56200
X38800Y-26400
X38800Y-27200
X38900Y-59400
X39000Y-22100
X39000Y-27700
X39000Y-62300
X39000Y-63900
X39200Y-55900
X39300Y-22900
X39300Y-23400
X39300Y-23900
X39300Y-24400
X39300Y-24900
X39300Y-25400
X39300Y-25900
X39300Y-26400
X39300Y-64600
X39400Y-50100
X39400Y-51200
X39400Y-69000
X39700Y-9300
X39700Y-13900
X39800Y-36400
X39800Y-36900
X39900Y-49800
X40100Y-21100
X40200Y-53500
X40200Y-59400
X40200Y-59900
X40300Y-50200
X40300Y-57300
X40500Y-62500
X40700Y-9300
X40700Y-53300
X40800Y-50300
X40800Y-57300
X40900Y-13900
X40900Y-63900
X41100Y-50900
X41200Y-53300
X41200Y-59400
X41400Y-35900
X41400Y-36900
X41600Y-37300
X41700Y-26800
X41800Y-36100
X42200Y-8700
X42500Y-4700
X42500Y-21100
X42500Y-21700
X42500Y-40700
X42700Y-9300
X42700Y-12300
X42700Y-20100
X42700Y-26800
X42900Y-35300
X43200Y-18000
X43300Y-14300
X43300Y-19900
X43300Y-40900
X43300Y-61100
X43600Y-20300
X43600Y-57900
X43700Y-34800
X43800Y-40900
X44000Y-20900
X44200Y-34600
X44200Y-57900
X44200Y-64200
X44300Y-13700
X44400Y-21400
X44400Y-22700
X44400Y-61100
X44700Y-9300
X44700Y-14300
X44900Y-17700
X45100Y-59000
X45200Y-19800
X45200Y-46800
X45200Y-53600
X45500Y-17900
X45600Y-53300
X45600Y-59400
X45700Y-5500
X45700Y-9500
X45700Y-27900
X45800Y-55300
X45800Y-55800
X45900Y-11700
X45900Y-57000
X46100Y-59700
X46300Y-34800
X46500Y-13800
X46600Y-18700
X46900Y-40000
X47000Y-21400
X47100Y-37400
X47200Y-21800
X47200Y-23000
X47400Y-39800
X47500Y-21200
X47500Y-57300
X47600Y-22600
X47600Y-57800
X47700Y-33600
X47700Y-48800
X47700Y-49400
X47700Y-49900
X47700Y-50400
X47700Y-51500
X47700Y-52000
X47900Y-39700
X47900Y-51000
X48000Y-11000
X48100Y-22500
X48100Y-41600
X48100Y-42100
X48100Y-49100
X48200Y-23000
X48300Y-20000
X48300Y-41100
X48500Y-48700
X48600Y-11000
X48600Y-23400
X48700Y-54400
X48900Y-19500
X48900Y-39700
X48900Y-59500
X49000Y-41200
X49000Y-48700
X49100Y-23100
X49300Y-40700
X49400Y-23500
X49400Y-59500
X49500Y-24000
X49600Y-12300
X49600Y-24500
X49800Y-41000
X50100Y-17700
X50100Y-37900
X50100Y-38400
X50200Y-38900
X50200Y-40700
X50300Y-20700
X50400Y-36400
X50400Y-57900
X50700Y-40500
X50800Y-16500
X50800Y-33700
X50800Y-57300
X50900Y-36200
X50900Y-38600
X50900Y-57900
X51300Y-20700
X51400Y-36000
X51400Y-38600
X51400Y-40400
X51500Y-29600
X51500Y-59500
X51900Y-35800
X51900Y-57100
X52000Y-29500
X52100Y-54900
X52100Y-51800
X52300Y-20700
X52400Y-14700
X52400Y-35600
X52500Y-46100
X52600Y-38800
X52900Y-35400
X53000Y-45700
X53100Y-38800
X53300Y-20700
X53300Y-29400
X53300Y-52000
X53400Y-35200
X53400Y-46200
X53500Y-59900
X53800Y-6200
X53800Y-45700
X53900Y-35000
X53900Y-48600
X54000Y-29600
X54100Y-45300
X54100Y-57300
X54200Y-11000
X54400Y-34800
X54400Y-48500
X54700Y-29100
X54800Y-45500
X54900Y-44900
X54900Y-48400
X54900Y-57500
X55000Y-59500
X55100Y-7400
X55200Y-49800
X55300Y-20700
X55300Y-29300
X55400Y-20100
X55400Y-48300
X55500Y-45000
X55800Y-14800
X55800Y-29100
X55800Y-49800
X55800Y-57400
X55900Y-44500
X55900Y-48200
X56300Y-20700
X56300Y-29100
X56300Y-49900
X56400Y-32500
X56400Y-44900
X56400Y-48100
X56500Y-20100
X56600Y-53800
X56800Y-56900
X56900Y-44000
X56900Y-44600
X56900Y-48000
X57000Y-56200
X57200Y-52900
X57200Y-54400
X57200Y-55400
X57900Y-42100
X57900Y-43900
X57900Y-44500
X57900Y-47200
X58200Y-17600
X58300Y-5600
X58300Y-43300
X58400Y-47000
X58600Y-46500
X58700Y-41800
X58800Y-43700
X58900Y-74200
X59000Y-42500
X59000Y-55900
X59100Y-43200
X59100Y-54900
X59300Y-20700
X59300Y-41400
X59300Y-42000
X59300Y-53900
X59700Y-42400
X60200Y-42700
X60300Y-5100
X60300Y-60100
X60600Y-43600
X60700Y-43000
X61300Y-5600
X62000Y-16500
X62200Y-14100
X62500Y-5600
X62700Y-66300
X63000Y-9300
X63100Y-24400
X63200Y-12500
X63300Y-5100
X63500Y-24000
X63500Y-24900
X63600Y-9400
X63800Y-24500
X63900Y-25400
X64000Y-12700
X64200Y-25000
X64300Y-25800
X64400Y-5400
X64400Y-33500
X64600Y-26300
X64700Y-25500
X64800Y-23300
X65000Y-26700
X65100Y-25900
X65300Y-27200
X65400Y-26400
X65400Y-46500
X65500Y-5500
X65600Y-22800
X65600Y-31700
X65700Y-27600
X65800Y-16500
X65800Y-26800
X66000Y-17400
X66100Y-27300
X66100Y-31500
X66200Y-22900
X66400Y-17800
X66600Y-22900
X67100Y-17800
X67400Y-29700
X67600Y-11100
X67800Y-28300
X67900Y-11700
X67900Y-29900
X68000Y-22900
X68100Y-8700
X68300Y-28300
X68300Y-29300
X68400Y-11700
X68700Y-28700
X68700Y-29700
X70300Y-16500
X70500Y-17900
X70900Y-23200
X70900Y-24800
X71200Y-25300
X71400Y-24300
X71400Y-24800
X71700Y-25600
X71800Y-23900
X72200Y-13500
X72300Y-24500
X72300Y-25800
X72500Y-18900
X72600Y-16500
X72900Y-26000
X73300Y-11800
X73300Y-12300
X73300Y-28200
X73400Y-18400
X73400Y-26300
X73500Y-28700
X73700Y-46300
X73750Y-47250
X74000Y-13600
X74000Y-28600
X74100Y-19900
X74200Y-19100
X74200Y-20500
X74200Y-29100
X74400Y-18400
X74500Y-33500
X74500Y-47700
X74700Y-16100
X74700Y-28000
X75000Y-9300
X75000Y-20500
X75000Y-47100
X75100Y-19300
X75100Y-34300
X75200Y-18600
X75200Y-27900
X75300Y-10800
X75300Y-14100
X75300Y-16700
X75300Y-35000
X75300Y-35500
X75300Y-41500
X75300Y-46300
X75500Y-9700
X75800Y-10800
X75800Y-27900
X75800Y-34500
X75900Y-20800
X76000Y-19300
X76000Y-47700
X76100Y-11200
X76200Y-26700
X76300Y-5700
X76300Y-13300
X76300Y-27700
X76300Y-34700
X76400Y-12700
X76500Y-21000
X76500Y-35400
X76500Y-35900
X76500Y-46300
X76700Y-27000
X76800Y-11100
X76800Y-27500
X76900Y-9500
X76900Y-19500
X77000Y-21100
X77000Y-34900
X77000Y-47700
X77300Y-11100
X77400Y-17900
X77400Y-47000
X77500Y-9500
X77500Y-35100
X77700Y-35800
X77700Y-36300
X77900Y-19500
X78200Y-35300
X78200Y-46900
X78500Y-9500
X78600Y-12600
X78700Y-13400
X78700Y-14100
X78700Y-19900
X78700Y-29900
X78700Y-35500
X78900Y-36200
X78900Y-36700
X78900Y-47600
X79200Y-29800
X79200Y-30300
X79300Y-46700
X79400Y-13100
X79400Y-19300
X79400Y-35700
X79600Y-12300
X79700Y-9500
X79700Y-25100
X79700Y-30200
X79700Y-30700
X79800Y-14400
X79900Y-36000
X79900Y-47600
X80000Y-36800
X80200Y-30600
X80200Y-31100
X80300Y-9500
X80400Y-10700
X80400Y-36300
X80500Y-46700
X80700Y-31000
X80700Y-31500
X80700Y-47600
X80900Y-8700
X81000Y-36800
X81100Y-9600
X81100Y-36300
X81200Y-4700
X81200Y-5700
X81200Y-10600
X81400Y-38800
X81700Y-36600
X81700Y-46700
X81700Y-47600
X82000Y-24300
X82000Y-25200
X82100Y-12200
X82100Y-18700
X82200Y-19900
X82300Y-36600
X82300Y-39000
X82400Y-12900
X82500Y-41200
X82500Y-47600
X82600Y-12300
X82600Y-18700
X82700Y-46700
X82800Y-16100
X82800Y-36600
X83000Y-12900
X83000Y-33400
X83100Y-12300
X83100Y-19200
X83100Y-42400
X83200Y-7100
X83200Y-41300
X83300Y-42000
X83300Y-47500
X83500Y-42600
X83600Y-18500
X83700Y-11300
X83700Y-36800
X83800Y-24600
X83900Y-42800
X84100Y-19300
X84100Y-46700
X84200Y-7100
X84200Y-18500
X84200Y-29500
X84300Y-11300
X84300Y-47500
X84600Y-27000
X84600Y-37600
X84700Y-13100
X84700Y-19300
X84900Y-17900
X85300Y-8700
X85300Y-46700
X85300Y-47500
X85400Y-31800
X85500Y-17900
X85600Y-23300
X85900Y-31300
X85900Y-31800
X86100Y-13100
X86100Y-23400
X86400Y-8700
X86400Y-31200
X86500Y-22100
X86500Y-46700
X86500Y-47500
X86800Y-27000
X86800Y-31500
X87000Y-22100
X87000Y-30300
X87200Y-31800
X87300Y-31000
X87500Y-8700
X87700Y-11900
X87700Y-46700
X87700Y-47500
X87900Y-14100
X88000Y-16100
X88000Y-31500
X88200Y-37000
X88200Y-43500
X88300Y-8700
X88300Y-21000
X88300Y-43000
X88500Y-23600
X88500Y-31500
X88500Y-42400
X88600Y-36800
X88600Y-37400
X88800Y-42900
X88800Y-47200
X88900Y-8700
X88900Y-15500
X88900Y-23500
X88900Y-27200
X89000Y-42200
X89100Y-20300
X89200Y-37400
X89200Y-46600
X89300Y-23500
X89400Y-37800
X89400Y-38200
X89700Y-23000
X89700Y-23500
X89700Y-47300
X89800Y-10300
X89800Y-14900
X89900Y-19900
X89900Y-31700
X90200Y-30100
X90200Y-38400
X90200Y-42600
X90200Y-45500
X90200Y-46600
X90400Y-31500
X90600Y-20300
X90600Y-23200
X90700Y-30300
X90700Y-30800
X90700Y-46300
X90800Y-22600
X90900Y-31300
X91100Y-27200
X91100Y-38300
X91100Y-42000
X91100Y-42700
X91100Y-47600
X91200Y-19900
X91300Y-15500
X91500Y-30500
X91600Y-27200
X91700Y-36300
X91700Y-41500
X91900Y-16100
X92100Y-31300
X92200Y-20600
X92200Y-22900
X92200Y-38300
X92200Y-46400
X92200Y-47600
X92300Y-11700
X92300Y-42100
X92300Y-42700
X92400Y-23800
X92500Y-14100
X92700Y-45500
X92700Y-46400
X92900Y-31000
X93100Y-23600
X93300Y-28300
X93800Y-28200
X93900Y-23700
X93900Y-24400
X93900Y-25200
X93900Y-26000
X93900Y-27100
X94100Y-23200
X94100Y-30100
X94200Y-26600
X94200Y-27500
X94300Y-24000
X94300Y-24800
X94300Y-25600
X94300Y-28200
X94500Y-12800
X94500Y-16100
X94500Y-42100
X94500Y-42700
X94600Y-12200
X94600Y-36300
X94700Y-38300
X94800Y-13600
X94900Y-30100
X95100Y-10400
X95400Y-9900
X95600Y-14100
X96000Y-23000
X96100Y-11800
X96200Y-28800
X96400Y-23400
X96500Y-14400
X96500Y-28000
X96700Y-24300
X96700Y-27200
X96900Y-23600
X96900Y-26400
X97000Y-32500
X97000Y-42100
X97100Y-17500
X97100Y-45500
X97200Y-24800
X97200Y-25700
X97200Y-36900
X97200Y-37900
X97300Y-11800
X97300Y-22300
X97300Y-24000
X97500Y-14100
X97700Y-17500
X97700Y-24400
X97700Y-36900
X97900Y-9300
X97900Y-23200
X97900Y-23600
X97900Y-25100
X98000Y-38000
X98100Y-37200
X98200Y-23900
X98300Y-19600
X98500Y-16100
X98500Y-22100
X98500Y-24500
X98600Y-11800
X98700Y-34600
X98800Y-9600
X98800Y-45500
X98900Y-36700
X98900Y-42100
X99000Y-18100
X99000Y-22100
X99000Y-26200
X99000Y-38200
X99200Y-34400
X99300Y-9600
X99500Y-22900
X99500Y-25800
X99500Y-33400
X99500Y-36300
X99600Y-11800
X99700Y-34400
X100000Y-9900
X100000Y-14100
X100000Y-22500
X100000Y-26900
X100000Y-32500
X100100Y-36700
X100200Y-34500
X100500Y-9800
X100500Y-14900
X100700Y-34500
X101000Y-15500
X101100Y-36600
X101300Y-9400
X101300Y-33400
X101500Y-12000
X101500Y-22900
X101500Y-23700
X101500Y-34500
X101600Y-25100
X101600Y-37700
X101600Y-42100
X101600Y-42700
X101700Y-10000
X101900Y-9400
X101900Y-24700
X102100Y-19800
X102100Y-34200
X102400Y-18100
X102500Y-16100
X102600Y-12200
X102800Y-9700
X103100Y-27700
X103100Y-28700
X103100Y-30600
X103200Y-12200
X103300Y-9700
X103300Y-21700
X103300Y-42000
X103400Y-35000
X103400Y-35500
X103400Y-36000
X103500Y-17800
X103500Y-30900
X103600Y-21200
X103700Y-19800
X103700Y-36800
X103700Y-37800
X103800Y-36300
X103800Y-37300
X103800Y-38300
X103800Y-38800
X103800Y-39300
X103800Y-39800
X103800Y-40300
X103800Y-40800
X103800Y-41300
X103900Y-16100
X103900Y-30600
X104100Y-21400
X104300Y-13000
X104300Y-27700
X104400Y-10700
X104400Y-30400
X104500Y-16600
X104500Y-20600
X104700Y-21400
X104700Y-22200
X104800Y-14100
X104900Y-16600
X105000Y-20600
X105000Y-27700
X105100Y-28500
X105300Y-16600
X105400Y-10700
X105400Y-23400
X105500Y-22500
X105600Y-28500
X105800Y-16600
X106000Y-25900
X106100Y-42500
X106300Y-24300
X106300Y-32400
X106400Y-10700
X106400Y-33700
X106500Y-26700
X106500Y-35700
X106600Y-30000
X106600Y-40300
X106900Y-42500
X107100Y-25000
X107100Y-44300
X107300Y-10700
X107500Y-42500
X107700Y-17400
X107900Y-24900
X108100Y-31400
X108300Y-14100
X108300Y-16100
X108400Y-10700
X108600Y-24600
X108700Y-44500
X108800Y-29200
X109100Y-27200
X109200Y-24600
X109400Y-10700
X109400Y-21400
X109500Y-47100
X109500Y-48400
X109500Y-58300
X109800Y-29100
X109900Y-10800
X110000Y-24600
X110300Y-21700
X110300Y-25800
X110300Y-28900
X110300Y-41000
X110400Y-28200
X110500Y-26500
X110700Y-43200
X110900Y-21600
X110900Y-25000
X110900Y-35600
X110900Y-38700
X110900Y-51100
X110900Y-54100
X110900Y-54700
X110900Y-57900
X111300Y-11300
X111500Y-24800
X111500Y-35500
X111600Y-42200
X111600Y-48000
X111700Y-21700
X111800Y-46900
X111900Y-51100
X111900Y-54100
X111900Y-54700
X111900Y-57900
X112300Y-31400
X112300Y-32400
X112300Y-46900
X112400Y-27300
X112500Y-41700
X112600Y-14100
X112700Y-16100
X112700Y-16800
X112700Y-26900
X112700Y-29200
X112800Y-12600
X112800Y-13000
X112800Y-25900
X112800Y-43300
X112800Y-43800
X112900Y-35600
X112900Y-45100
X112900Y-48000
X112900Y-50900
X113000Y-21400
X113000Y-24600
X113200Y-12500
X113200Y-15700
X113300Y-42300
X113400Y-24800
X113400Y-26400
X113500Y-16800
X113600Y-29200
X113600Y-31400
X113700Y-15400
X113700Y-25700
X113800Y-48100
X113900Y-12300
X114000Y-11400
X114000Y-13600
X114000Y-20800
X114300Y-20000
X114400Y-29200
X114500Y-13600
X114500Y-16800
X114600Y-11400
X114600Y-26300
X114700Y-22900
X114800Y-20000
X114800Y-57900
X114900Y-54700
X115100Y-27800
X115100Y-44800
X115200Y-19600
X115300Y-15400
X115400Y-22700
X115400Y-26400
X115400Y-29200
X115500Y-18800
X115600Y-19600
X115800Y-20000
X115900Y-19000
X115900Y-30000
X115900Y-32400
X115900Y-47900
X115900Y-57900
X116100Y-22500
X116200Y-18400
X116200Y-26400
X116400Y-20000
X116400Y-33200
X116600Y-22700
X116800Y-13600
X116800Y-15800
X116800Y-16300
X116900Y-30400
X116900Y-47900
X116900Y-51000
X117000Y-14100
X117000Y-26400
X117200Y-22700
X117300Y-10900
X117400Y-14400
X117400Y-29200
X117400Y-30500
X117500Y-19400
X117600Y-26400
X117600Y-37700
X117700Y-15400
X117700Y-23000
X117700Y-24500
X117800Y-25600
X118000Y-30500
X118100Y-11000
X118400Y-10500
X118400Y-29600
X118600Y-20700
X118700Y-24400
X118800Y-11400
X118800Y-13400
X119000Y-21000
X119100Y-10800
X119400Y-12900
X119400Y-26400
X119500Y-23800
X119600Y-11000
X119600Y-13700
X119700Y-25400
X119800Y-24500
X119900Y-12900
X119900Y-23200
X120000Y-11400
X120000Y-14200
X120300Y-13200
X120300Y-30500
X120300Y-33100
X120400Y-10600
X120600Y-29900
X120700Y-8700
X120700Y-17800
X120800Y-33100
X121100Y-29900
X121200Y-17800
X121300Y-8700
X121300Y-14300
X121300Y-20900
X121300Y-33100
X121400Y-15200
X121400Y-16000
X121800Y-33100
X121800Y-34700
X121900Y-34200
X122000Y-10700
X122000Y-33700
X122100Y-11500
X122300Y-33200
X122400Y-18700
X122800Y-19100
X122900Y-18500
X124100Y-15400
X124100Y-16900
X124100Y-22200
X124100Y-29200
X124100Y-32400
T2
X1600Y-31100
X1700Y-38700
X2100Y-35100
X2900Y-31700
X4500Y-62500
X4600Y-68700
X5900Y-35400
X6100Y-22200
X6600Y-65400
X6900Y-32900
X8900Y-64400
X8900Y-66200
X10100Y-66200
X10900Y-38700
X15400Y-66200
X16100Y-28300
X16300Y-48500
X17300Y-40700
X17500Y-37300
X17900Y-49700
X17900Y-51400
X17900Y-60100
X18100Y-45200
X18900Y-38000
X18900Y-40700
X20400Y-48100
X20500Y-40700
X20700Y-49700
X21200Y-48800
X21200Y-56800
X21300Y-64400
X21300Y-66200
X21500Y-15500
X21800Y-27500
X21850Y-59900
X22000Y-39700
X22400Y-56800
X22500Y-17800
X23300Y-25300
X23300Y-28900
X23300Y-30100
X23500Y-59900
X24400Y-39700
X24400Y-45500
X25400Y-28800
X25900Y-38500
X25900Y-43500
X25900Y-48900
X27300Y-13100
X27500Y-48900
X27600Y-28000
X28100Y-42500
X28200Y-43200
X28500Y-12300
X29600Y-48900
X30000Y-28500
X30100Y-19300
X31100Y-12300
X31100Y-49700
X31700Y-18700
X31700Y-30500
X32200Y-62700
X33500Y-14900
X34500Y-15500
X35200Y-39700
X35900Y-12300
X35900Y-24900
X37500Y-39700
X37700Y-31700
X38300Y-34800
X38700Y-8700
X38700Y-38500
X38900Y-34100
X39700Y-12900
X39700Y-39700
X39900Y-42700
X40200Y-31700
X40200Y-42100
X40500Y-16500
X40700Y-12900
X41200Y-8700
X41500Y-12300
X41500Y-48500
X41700Y-18700
X41700Y-23500
X41900Y-52700
X41900Y-56700
X42500Y-55300
X43300Y-16500
X43700Y-8700
X44400Y-12900
X45500Y-12300
X45700Y-8700
X45700Y-54100
X46700Y-12900
X47700Y-8700
X49700Y-53900
X50400Y-8700
X51100Y-49400
X51300Y-45800
X51500Y-18700
X52100Y-53900
X52900Y-50500
X53300Y-54000
X55800Y-33500
X56100Y-51900
X57300Y-20700
X57300Y-51900
X58300Y-20700
X58700Y-11100
X59100Y-33500
X59400Y-17800
X60600Y-50700
X62000Y-64200
X63200Y-57100
X66700Y-16500
X66700Y-41500
X67000Y-7800
X67700Y-14100
X68100Y-18200
X68500Y-32500
X69700Y-33500
X69700Y-41500
X70700Y-32500
X72500Y-46500
X73200Y-47500
X74500Y-11700
X74500Y-14900
X79200Y-33400
X79700Y-8700
X80800Y-16100
X83200Y-8700
X85800Y-16100
X91300Y-16100
X91700Y-32500
X91700Y-33400
X96900Y-8700
X98900Y-8700
X100900Y-8700
X102900Y-8700
X106600Y-16600
X109100Y-32400
X112900Y-54100
X112900Y-57900
X113900Y-54700
X114200Y-41700
X115200Y-32400
X115400Y-51000
X115900Y-38600
X115900Y-44800
X115900Y-54700
X116900Y-61100
X117900Y-54700
X119500Y-32400
X121300Y-16700
X124100Y-9100
X2100Y-7900
X2100Y-13900
X3700Y-7900
X3700Y-13900
X6100Y-7900
X6100Y-13900
X8500Y-7900
X8500Y-13900
X46700Y-9500
X47192Y-10287
X47684Y-9500
X48176Y-10287
X48669Y-9500
X49161Y-10287
X49653Y-9500
X50145Y-10287
X50637Y-9500
X51129Y-10287
X51621Y-9500
X52113Y-10287
X52606Y-9500
X53098Y-10287
X53590Y-9500
X54082Y-10287
X54574Y-9500
X55066Y-10287
X55558Y-9500
X56050Y-10287
X56543Y-9500
X57035Y-10287
X57527Y-9500
X58019Y-10287
X58511Y-9500
X59003Y-10287
X59495Y-9500
X59987Y-10287
X60480Y-9500
X60972Y-10287
X23500Y-22939
X29500Y-21979
X29500Y-23900
X42700Y-22700
X42700Y-28700
X45700Y-22700
X45700Y-28700
X73300Y-11100
X73300Y-13100
X14381Y-3346
X14381Y-4330
X17019Y-3346
X17019Y-4330
X11044Y-41000
X11044Y-42000
X11044Y-43000
X11044Y-44000
X11044Y-45000
X11044Y-46000
X11044Y-47000
X11044Y-48000
X11044Y-49000
X11044Y-50000
X11044Y-51000
X11044Y-52000
X11044Y-53000
X11044Y-54000
X11044Y-55000
X11044Y-56000
X11044Y-57000
X11796Y-40500
X11796Y-41500
X11796Y-42500
X11796Y-43500
X11796Y-44500
X11796Y-45500
X11796Y-46500
X11796Y-47500
X11796Y-48500
X11796Y-49500
X11796Y-50500
X11796Y-51500
X11796Y-52500
X11796Y-53500
X11796Y-54500
X11796Y-55500
X11796Y-56500
X12548Y-41000
X12548Y-42000
X12548Y-43000
X12548Y-44000
X12548Y-45000
X12548Y-46000
X12548Y-47000
X12548Y-48000
X12548Y-49000
X12548Y-50000
X12548Y-51000
X12548Y-52000
X12548Y-53000
X12548Y-54000
X12548Y-55000
X12548Y-56000
X12548Y-57000
X13300Y-40500
X13300Y-41500
X13300Y-42500
X13300Y-43500
X13300Y-44500
X13300Y-45500
X13300Y-46500
X13300Y-47500
X13300Y-48500
X13300Y-49500
X13300Y-50500
X13300Y-51500
X13300Y-52500
X13300Y-53500
X13300Y-54500
X13300Y-55500
X13300Y-56500
X19300Y-52700
X19300Y-58700
X20300Y-52700
X20300Y-58700
X21300Y-52700
X21300Y-58700
X22300Y-52700
X22300Y-58700
X23300Y-52700
X23300Y-58700
X24300Y-52700
X24300Y-58700
X25300Y-52700
X25300Y-58700
X26300Y-52700
X26300Y-58700
X27300Y-52700
X27300Y-58700
X28300Y-52700
X28300Y-58700
X29300Y-52700
X29300Y-58700
X30300Y-52700
X30300Y-58700
X31300Y-52700
X31300Y-58700
X32300Y-52700
X32300Y-58700
X33300Y-52700
X33300Y-58700
X34300Y-52700
X34300Y-58700
X35300Y-52700
X35300Y-58700
X36300Y-52700
X36300Y-58700
X37300Y-52700
X37300Y-58700
X38300Y-52700
X38300Y-58700
X39300Y-52700
X39300Y-58700
X19313Y-17765
X19313Y-18552
X19313Y-19339
X19313Y-20127
X19313Y-20914
X19313Y-21702
X19313Y-22489
X19313Y-23276
X19313Y-24064
X19313Y-24851
X19313Y-25639
X19313Y-26426
X19313Y-27213
X19313Y-28001
X19313Y-28788
X19313Y-29576
X19313Y-30363
X19313Y-31150
X19313Y-31938
X19313Y-32725
X19313Y-33513
X19313Y-34300
X20100Y-17765
X20100Y-18552
X20100Y-19339
X20100Y-20127
X20100Y-20914
X20100Y-21702
X20100Y-22489
X20100Y-23276
X20100Y-24064
X20100Y-24851
X20100Y-25639
X20100Y-26426
X20100Y-27213
X20100Y-28001
X20100Y-28788
X20100Y-29576
X20100Y-30363
X20100Y-31150
X20100Y-31938
X20100Y-32725
X20100Y-33513
X20100Y-34300
T3
X23631Y-7300
X25600Y-7300
X64300Y-9400
X65300Y-9400
X66300Y-9400
X67300Y-9400
X6600Y-16900
X8569Y-16900
X103900Y-9200
X103900Y-10200
X104900Y-9200
X104900Y-10200
X105900Y-9200
X105900Y-10200
X106900Y-9200
X106900Y-10200
X107900Y-9200
X107900Y-10200
X108900Y-9200
X108900Y-10200
X109900Y-9200
X109900Y-10200
X110900Y-9200
X110900Y-10200
X111900Y-9200
X111900Y-10200
X112900Y-9200
X112900Y-10200
X113900Y-9200
X113900Y-10200
X114900Y-9200
X114900Y-10200
X115900Y-9200
X115900Y-10200
X116900Y-9200
X116900Y-10200
X117900Y-9200
X117900Y-10200
X118900Y-9200
X118900Y-10200
X119900Y-9200
X119900Y-10200
X89900Y-8700
X91869Y-8700
X113000Y-59600
X114000Y-59600
X115000Y-59600
X116000Y-59600
T4
X108100Y-3800
X108645Y-2682
X109191Y-3800
X109736Y-2682
X110281Y-3800
X110826Y-2682
X111372Y-3800
X111917Y-2682
X112462Y-3800
X113007Y-2682
X113553Y-3800
X114098Y-2682
X114643Y-3800
X115189Y-2682
X115734Y-3800
X116279Y-2682
X116824Y-3800
X117370Y-2682
X117915Y-3800
X118460Y-2682
X119006Y-3800
X119551Y-2682
X120096Y-3800
X32104Y-3800
X32649Y-2682
X33194Y-3800
X33740Y-2682
X34285Y-3800
X34830Y-2682
X35376Y-3800
X35921Y-2682
X36466Y-3800
X37011Y-2682
X37557Y-3800
X38102Y-2682
X38647Y-3800
X39193Y-2682
X39738Y-3800
X40283Y-2682
X40828Y-3800
X41374Y-2682
X41919Y-3800
X42464Y-2682
X43009Y-3800
X43555Y-2682
X44100Y-3800
X119400Y-52338
X119400Y-53428
X119400Y-54519
X119400Y-55609
X119400Y-56700
X120518Y-52883
X120518Y-53974
X120518Y-55064
X120518Y-56155
X63400Y-3800
X63945Y-2682
X64491Y-3800
X65036Y-2682
X65581Y-3800
X66126Y-2682
X66672Y-3800
X67217Y-2682
X67762Y-3800
X68307Y-2682
X68853Y-3800
X69398Y-2682
X69943Y-3800
X70489Y-2682
X71034Y-3800
X71579Y-2682
X72124Y-3800
X72670Y-2682
X73215Y-3800
X73760Y-2682
X74306Y-3800
X74851Y-2682
X75396Y-3800
X75941Y-2682
X76487Y-3800
X119400Y-39738
X119400Y-40828
X119400Y-41919
X119400Y-43009
X119400Y-44100
X120518Y-40283
X120518Y-41374
X120518Y-42464
X120518Y-43555
X85813Y-3800
X86359Y-2682
X86904Y-3800
X87449Y-2682
X87994Y-3800
X88540Y-2682
X89085Y-3800
X89630Y-2682
X90176Y-3800
X90721Y-2682
X91266Y-3800
X91811Y-2682
X92357Y-3800
X92902Y-2682
X93447Y-3800
X93993Y-2682
X94538Y-3800
X95083Y-2682
X95628Y-3800
X96174Y-2682
X96719Y-3800
X97264Y-2682
X97809Y-3800
X98355Y-2682
X98900Y-3800
X30300Y-25300
X30300Y-27269
T5
X1579Y-4516
X1579Y-6484
X3547Y-1563
X4531Y-1563
X4531Y-4516
X5516Y-1563
X6500Y-5500
X7484Y-6484
X2100Y-9500
X2100Y-12300
X4100Y-9500
X4100Y-12300
X6100Y-9500
X6100Y-12300
X8100Y-9500
X8100Y-12300
T6
X13039Y-2169
X15700Y-1850
X18361Y-2169
T7
X9916Y-9491
X10109Y-5672
X21291Y-5672
X21884Y-9491
X12548Y-38748
X12548Y-58752
T8
X105372Y-3241
X122824Y-3241
X29376Y-3241
X46828Y-3241
X119959Y-49598
X119959Y-59440
X60672Y-3241
X79215Y-3241
X119959Y-36998
X119959Y-46840
X83085Y-3241
X101628Y-3241
T9
X107900Y-37950
X62400Y-74000
T3
G00X54600Y-3505
M15
G01X54600Y-4095
M16
G05
G00X57553Y-3505
M15
G01X57553Y-4095
M16
G05
G00X49600Y-3505
M15
G01X49600Y-4095
M16
G05
G00X52553Y-3505
M15
G01X52553Y-4095
M16
G05
G00X23600Y-3505
M15
G01X23600Y-4095
M16
G05
G00X26553Y-3505
M15
G01X26553Y-4095
M16
G05
T4
G00X50840Y-2343
M15
G01X51313Y-2343
M16
G05
G00X24840Y-2343
M15
G01X25313Y-2343
M16
G05
G00X55840Y-2343
M15
G01X56313Y-2343
M16
G05
T5
G00X23957Y-12500
M15
G01X24843Y-12500
M16
G05
G00X23957Y-41800
M15
G01X24843Y-41800
M16
G05
G00X60857Y-41800
M15
G01X61743Y-41800
M16
G05
G00X60857Y-12500
M15
G01X61743Y-12500
M16
G05
T0
M30
