G04 #@! TF.GenerationSoftware,KiCad,Pcbnew,5.1.7-1.fc32*
G04 #@! TF.CreationDate,2020-10-19T10:18:13+01:00*
G04 #@! TF.ProjectId,Amiga600,416d6967-6136-4303-902e-6b696361645f,rev?*
G04 #@! TF.SameCoordinates,Original*
G04 #@! TF.FileFunction,Profile,NP*
%FSLAX46Y46*%
G04 Gerber Fmt 4.6, Leading zero omitted, Abs format (unit mm)*
G04 Created by KiCad (PCBNEW 5.1.7-1.fc32) date 2020-10-19 10:18:13*
%MOMM*%
%LPD*%
G01*
G04 APERTURE LIST*
G04 #@! TA.AperFunction,Profile*
%ADD10C,0.010000*%
G04 #@! TD*
G04 APERTURE END LIST*
D10*
X236220000Y-129540000D02*
X236728000Y-129032000D01*
X184658000Y-129032000D02*
X185166000Y-129540000D01*
X313944000Y-87376000D02*
G75*
G02*
X315214000Y-86106000I1270000J0D01*
G01*
X275082000Y-120142000D02*
G75*
G02*
X276352000Y-121412000I0J-1270000D01*
G01*
X236728000Y-121412000D02*
G75*
G02*
X237998000Y-120142000I1270000J0D01*
G01*
X183388000Y-120142000D02*
G75*
G02*
X184658000Y-121412000I0J-1270000D01*
G01*
X164592000Y-121412000D02*
G75*
G02*
X165862000Y-120142000I1270000J0D01*
G01*
X0Y0D02*
X0Y-194056000D01*
X0Y0D02*
X316992000Y0D01*
X316992000Y-86106000D02*
X316992000Y0D01*
X315214000Y-86106000D02*
X316992000Y-86106000D01*
X313944000Y-156972000D02*
X313944000Y-87376000D01*
X276352000Y-156972000D02*
X313944000Y-156972000D01*
X276352000Y-121412000D02*
X276352000Y-156972000D01*
X237998000Y-120142000D02*
X275082000Y-120142000D01*
X236728000Y-129032000D02*
X236728000Y-121412000D01*
X185166000Y-129540000D02*
X236220000Y-129540000D01*
X184658000Y-121412000D02*
X184658000Y-129032000D01*
X165862000Y-120142000D02*
X183388000Y-120142000D01*
X0Y-194056000D02*
X164592000Y-194056000D01*
X164592000Y-194056000D02*
X164592000Y-121412000D01*
M02*
