G04 #@! TF.GenerationSoftware,KiCad,Pcbnew,5.1.7-1.fc32*
G04 #@! TF.CreationDate,2020-10-19T10:18:13+01:00*
G04 #@! TF.ProjectId,Amiga600,416d6967-6136-4303-902e-6b696361645f,rev?*
G04 #@! TF.SameCoordinates,Original*
G04 #@! TF.FileFunction,Soldermask,Bot*
G04 #@! TF.FilePolarity,Negative*
%FSLAX46Y46*%
G04 Gerber Fmt 4.6, Leading zero omitted, Abs format (unit mm)*
G04 Created by KiCad (PCBNEW 5.1.7-1.fc32) date 2020-10-19 10:18:13*
%MOMM*%
%LPD*%
G01*
G04 APERTURE LIST*
%ADD10C,0.100000*%
%ADD11C,1.370000*%
%ADD12R,1.370000X1.370000*%
%ADD13C,4.000000*%
%ADD14R,5.000000X2.500000*%
%ADD15O,4.750000X2.500000*%
%ADD16C,2.250000*%
%ADD17C,1.900000*%
%ADD18C,5.200000*%
%ADD19C,4.200000*%
%ADD20R,1.900000X1.900000*%
%ADD21R,8.128000X8.128000*%
%ADD22C,4.500000*%
%ADD23C,3.200000*%
%ADD24R,0.762000X6.350000*%
%ADD25C,1.600000*%
%ADD26R,1.600000X1.600000*%
%ADD27R,1.370000X1.900000*%
%ADD28R,2.300000X1.900000*%
%ADD29C,3.300000*%
%ADD30C,3.400000*%
%ADD31R,10.160000X10.160000*%
%ADD32C,1.330000*%
%ADD33R,1.330000X1.330000*%
%ADD34R,3.750000X2.500000*%
%ADD35R,2.500000X3.750000*%
%ADD36O,2.000000X3.500000*%
%ADD37O,3.500000X2.300000*%
G04 APERTURE END LIST*
D10*
G36*
X237998000Y-129540000D02*
G01*
X183388000Y-129540000D01*
X183388000Y-122682000D01*
X237998000Y-122682000D01*
X237998000Y-129540000D01*
G37*
D11*
X28052000Y-144780000D03*
X29962000Y-143510000D03*
X28052000Y-142240000D03*
X29962000Y-140970000D03*
X28052000Y-139700000D03*
X29962000Y-138430000D03*
X28052000Y-137160000D03*
X29962000Y-135890000D03*
X28052000Y-134620000D03*
X29962000Y-133350000D03*
X28052000Y-132080000D03*
X29962000Y-130810000D03*
X28052000Y-129540000D03*
X29962000Y-128270000D03*
X28052000Y-127000000D03*
X29962000Y-125730000D03*
X28052000Y-124460000D03*
X29962000Y-123190000D03*
X28052000Y-121920000D03*
X29962000Y-120650000D03*
X28052000Y-119380000D03*
X29962000Y-118110000D03*
X28052000Y-116840000D03*
X29962000Y-115570000D03*
X28052000Y-114300000D03*
X29962000Y-113030000D03*
X28052000Y-111760000D03*
X29962000Y-110490000D03*
X28052000Y-109220000D03*
X29962000Y-107950000D03*
X28052000Y-106680000D03*
X29962000Y-105410000D03*
X28052000Y-104140000D03*
X29962000Y-102870000D03*
X31872000Y-144780000D03*
X33782000Y-143510000D03*
X31872000Y-142240000D03*
X33782000Y-140970000D03*
X31872000Y-139700000D03*
X33782000Y-138430000D03*
X31872000Y-137160000D03*
X33782000Y-135890000D03*
X31872000Y-134620000D03*
X33782000Y-133350000D03*
X31872000Y-132080000D03*
X33782000Y-130810000D03*
X31872000Y-129540000D03*
X33782000Y-128270000D03*
X31872000Y-127000000D03*
X33782000Y-125730000D03*
X31872000Y-124460000D03*
X33782000Y-123190000D03*
X31872000Y-121920000D03*
X33782000Y-120650000D03*
X31872000Y-119380000D03*
X33782000Y-118110000D03*
X31872000Y-116840000D03*
X33782000Y-115570000D03*
X31872000Y-114300000D03*
X33782000Y-113030000D03*
X31872000Y-111760000D03*
X33782000Y-110490000D03*
X31872000Y-109220000D03*
X33782000Y-107950000D03*
X31872000Y-106680000D03*
X33782000Y-105410000D03*
D12*
X33782000Y-102870000D03*
D13*
X31872000Y-98420000D03*
X31872000Y-149230000D03*
D11*
X31872000Y-104140000D03*
D14*
X61976000Y-106172000D03*
D15*
X61976000Y-106172000D03*
D14*
X155702000Y-106172000D03*
D15*
X155702000Y-106172000D03*
D14*
X155702000Y-31750000D03*
D15*
X155702000Y-31750000D03*
D14*
X61976000Y-31750000D03*
D15*
X61976000Y-31750000D03*
D11*
X263906000Y-25908000D03*
X263906000Y-23368000D03*
X266446000Y-25908000D03*
X266446000Y-23368000D03*
X268986000Y-25908000D03*
X268986000Y-23368000D03*
X271526000Y-25908000D03*
X271526000Y-23368000D03*
X274066000Y-25908000D03*
X274066000Y-23368000D03*
X276606000Y-25908000D03*
X276606000Y-23368000D03*
X279146000Y-25908000D03*
X279146000Y-23368000D03*
X281686000Y-25908000D03*
X281686000Y-23368000D03*
X284226000Y-25908000D03*
X284226000Y-23368000D03*
X286766000Y-25908000D03*
X286766000Y-23368000D03*
X289306000Y-25908000D03*
X289306000Y-23368000D03*
X291846000Y-25908000D03*
X291846000Y-23368000D03*
X294386000Y-25908000D03*
X294386000Y-23368000D03*
X296926000Y-25908000D03*
X296926000Y-23368000D03*
X299466000Y-25908000D03*
X299466000Y-23368000D03*
X302006000Y-25908000D03*
X302006000Y-23368000D03*
X304546000Y-25908000D03*
D12*
X304546000Y-23368000D03*
D16*
X11510000Y-11470000D03*
X19010000Y-16470000D03*
X16510000Y-13970000D03*
X4010000Y-11470000D03*
X4010000Y-16470000D03*
X14010000Y-3970000D03*
X9010000Y-3970000D03*
X11510000Y-3970000D03*
D17*
X303659000Y-6812000D03*
X300889000Y-6812000D03*
X298119000Y-6812000D03*
X295349000Y-6812000D03*
X292579000Y-6812000D03*
X289809000Y-6812000D03*
X287039000Y-6812000D03*
X284269000Y-6812000D03*
X281499000Y-6812000D03*
X278729000Y-6812000D03*
X275959000Y-6812000D03*
X305044000Y-9652000D03*
X302274000Y-9652000D03*
X299504000Y-9652000D03*
X296734000Y-9652000D03*
X293964000Y-9652000D03*
X291194000Y-9652000D03*
X288424000Y-9652000D03*
X285654000Y-9652000D03*
X282884000Y-9652000D03*
X280114000Y-9652000D03*
D18*
X267644000Y-8232000D03*
X311974000Y-8232000D03*
D19*
X267644000Y-8232000D03*
X311974000Y-8232000D03*
D17*
X277344000Y-9652000D03*
D20*
X274574000Y-9652000D03*
D17*
X219351000Y-6812000D03*
X222121000Y-6812000D03*
X224891000Y-6812000D03*
X227661000Y-6812000D03*
X230431000Y-6812000D03*
X233201000Y-6812000D03*
X235971000Y-6812000D03*
X238741000Y-6812000D03*
X241511000Y-6812000D03*
X244281000Y-6812000D03*
X247051000Y-6812000D03*
X249821000Y-6812000D03*
X217966000Y-9652000D03*
X220736000Y-9652000D03*
X223506000Y-9652000D03*
X226276000Y-9652000D03*
X229046000Y-9652000D03*
X231816000Y-9652000D03*
X234586000Y-9652000D03*
X237356000Y-9652000D03*
X240126000Y-9652000D03*
X242896000Y-9652000D03*
X245666000Y-9652000D03*
D18*
X211036000Y-8232000D03*
X258136000Y-8232000D03*
D19*
X211036000Y-8232000D03*
X258136000Y-8232000D03*
D17*
X248436000Y-9652000D03*
D20*
X251206000Y-9652000D03*
D17*
X192891000Y-6812000D03*
X190121000Y-6812000D03*
X187351000Y-6812000D03*
X184581000Y-6812000D03*
X181811000Y-6812000D03*
X179041000Y-6812000D03*
X176271000Y-6812000D03*
X173501000Y-6812000D03*
X170731000Y-6812000D03*
X167961000Y-6812000D03*
X165191000Y-6812000D03*
X162421000Y-6812000D03*
X194276000Y-9652000D03*
X191506000Y-9652000D03*
X188736000Y-9652000D03*
X185966000Y-9652000D03*
X183196000Y-9652000D03*
X180426000Y-9652000D03*
X177656000Y-9652000D03*
X174886000Y-9652000D03*
X172116000Y-9652000D03*
X169346000Y-9652000D03*
X166576000Y-9652000D03*
D18*
X154106000Y-8232000D03*
X201206000Y-8232000D03*
D19*
X154106000Y-8232000D03*
X201206000Y-8232000D03*
D17*
X163806000Y-9652000D03*
D20*
X161036000Y-9652000D03*
D21*
X274066000Y-96393000D03*
D22*
X274066000Y-96393000D03*
D12*
X108458000Y-57658000D03*
D11*
X116078000Y-57658000D03*
X116078000Y-72898000D03*
X108458000Y-72898000D03*
D23*
X311912000Y-22352000D03*
X5080000Y-188976000D03*
X282956000Y-150622000D03*
D24*
X235458000Y-125857000D03*
X234188000Y-125857000D03*
X232918000Y-125857000D03*
X231648000Y-125857000D03*
X230378000Y-125857000D03*
X229108000Y-125857000D03*
X227838000Y-125857000D03*
X226568000Y-125857000D03*
X225298000Y-125857000D03*
X224028000Y-125857000D03*
X222758000Y-125857000D03*
X220218000Y-125857000D03*
X221488000Y-125857000D03*
X218948000Y-125857000D03*
X217678000Y-125857000D03*
X216408000Y-125857000D03*
X215138000Y-125857000D03*
X213868000Y-125857000D03*
X212598000Y-125857000D03*
X211328000Y-125857000D03*
X210058000Y-125857000D03*
X208788000Y-125857000D03*
X207518000Y-125857000D03*
X206248000Y-125857000D03*
X204978000Y-125857000D03*
X203708000Y-125857000D03*
X202438000Y-125857000D03*
X201168000Y-125857000D03*
X199898000Y-125857000D03*
X198628000Y-125857000D03*
X197358000Y-125857000D03*
X196088000Y-125857000D03*
X194818000Y-125857000D03*
X193548000Y-125857000D03*
X192278000Y-125857000D03*
X191008000Y-125857000D03*
X189738000Y-125857000D03*
X188468000Y-125857000D03*
X187198000Y-125857000D03*
X185928000Y-125857000D03*
D11*
X170942000Y-23876000D03*
X168402000Y-23876000D03*
D12*
X163322000Y-23876000D03*
D11*
X165862000Y-23876000D03*
X294640000Y-151384000D03*
X292100000Y-151384000D03*
D12*
X287020000Y-151384000D03*
D11*
X289560000Y-151384000D03*
D25*
X76962000Y-64262000D03*
X76962000Y-69262000D03*
D11*
X186182000Y-33274000D03*
D12*
X186182000Y-28194000D03*
D17*
X82929000Y-6812000D03*
X85699000Y-6812000D03*
X88469000Y-6812000D03*
X91239000Y-6812000D03*
X94009000Y-6812000D03*
X96779000Y-6812000D03*
X99549000Y-6812000D03*
X102319000Y-6812000D03*
X105089000Y-6812000D03*
X107859000Y-6812000D03*
X110629000Y-6812000D03*
X81544000Y-9652000D03*
X84314000Y-9652000D03*
X87084000Y-9652000D03*
X89854000Y-9652000D03*
X92624000Y-9652000D03*
X95394000Y-9652000D03*
X98164000Y-9652000D03*
X100934000Y-9652000D03*
X103704000Y-9652000D03*
X106474000Y-9652000D03*
D18*
X74614000Y-8232000D03*
X118944000Y-8232000D03*
D19*
X74614000Y-8232000D03*
X118944000Y-8232000D03*
D17*
X109244000Y-9652000D03*
D20*
X112014000Y-9652000D03*
D11*
X59690000Y-58266000D03*
D12*
X74930000Y-60706000D03*
D11*
X74930000Y-55826000D03*
D25*
X233346000Y-22098000D03*
D26*
X228346000Y-22098000D03*
D25*
X21764000Y-42926000D03*
D26*
X16764000Y-42926000D03*
D25*
X60024000Y-18542000D03*
D26*
X65024000Y-18542000D03*
D27*
X30734000Y-54278000D03*
X30734000Y-50878000D03*
X38354000Y-50878000D03*
X38354000Y-54278000D03*
X35814000Y-50878000D03*
X35814000Y-54278000D03*
X16764000Y-64594000D03*
X16764000Y-67994000D03*
X33274000Y-50878000D03*
X33274000Y-54278000D03*
X16764000Y-74852000D03*
X16764000Y-71452000D03*
X46228000Y-105742000D03*
X46228000Y-109142000D03*
X206248000Y-30812000D03*
X206248000Y-34212000D03*
X305562000Y-43102000D03*
X305562000Y-39702000D03*
X65786000Y-74754000D03*
X65786000Y-78154000D03*
X60706000Y-74754000D03*
X60706000Y-78154000D03*
X249428000Y-76122000D03*
X249428000Y-72722000D03*
X257048000Y-72722000D03*
X257048000Y-76122000D03*
X64770000Y-59006000D03*
X64770000Y-62406000D03*
X69850000Y-62406000D03*
X69850000Y-59006000D03*
X72390000Y-62406000D03*
X72390000Y-59006000D03*
X59182000Y-70026000D03*
X59182000Y-66626000D03*
X281178000Y-115492000D03*
X281178000Y-112092000D03*
X299466000Y-148414000D03*
X299466000Y-151814000D03*
X294386000Y-124030000D03*
X294386000Y-127430000D03*
X226822000Y-27862000D03*
X226822000Y-24462000D03*
X184150000Y-31418000D03*
X184150000Y-28018000D03*
X176530000Y-31418000D03*
X176530000Y-28018000D03*
X21844000Y-13286000D03*
X21844000Y-16686000D03*
X13970000Y-43610000D03*
X13970000Y-40210000D03*
X8382000Y-43610000D03*
X8382000Y-40210000D03*
X11176000Y-40210000D03*
X11176000Y-43610000D03*
X137922000Y-132158000D03*
X137922000Y-135558000D03*
X118110000Y-56974000D03*
X118110000Y-60374000D03*
X72898000Y-16334000D03*
X72898000Y-19734000D03*
X77978000Y-16334000D03*
X77978000Y-19734000D03*
X80518000Y-16334000D03*
X80518000Y-19734000D03*
X85598000Y-16334000D03*
X85598000Y-19734000D03*
X294386000Y-100154000D03*
X294386000Y-103554000D03*
X95758000Y-16334000D03*
X95758000Y-19734000D03*
X98298000Y-16334000D03*
X98298000Y-19734000D03*
X100838000Y-16334000D03*
X100838000Y-19734000D03*
X103378000Y-16334000D03*
X103378000Y-19734000D03*
X108458000Y-16334000D03*
X108458000Y-19734000D03*
X75438000Y-19734000D03*
X75438000Y-16334000D03*
X83058000Y-19734000D03*
X83058000Y-16334000D03*
X88138000Y-19734000D03*
X88138000Y-16334000D03*
X105918000Y-19734000D03*
X105918000Y-16334000D03*
X110998000Y-19734000D03*
X110998000Y-16334000D03*
X145542000Y-16334000D03*
X145542000Y-19734000D03*
X150622000Y-16334000D03*
X150622000Y-19734000D03*
X294386000Y-144702000D03*
X294386000Y-141302000D03*
X299466000Y-127430000D03*
X299466000Y-124030000D03*
X299466000Y-135050000D03*
X299466000Y-131650000D03*
X299466000Y-141302000D03*
X299466000Y-144702000D03*
X289306000Y-141302000D03*
X289306000Y-144702000D03*
X289306000Y-131650000D03*
X289306000Y-135050000D03*
X294386000Y-131650000D03*
X294386000Y-135050000D03*
X294386000Y-119302000D03*
X294386000Y-115902000D03*
X291846000Y-92534000D03*
X291846000Y-95934000D03*
X296926000Y-92534000D03*
X296926000Y-95934000D03*
X299466000Y-111682000D03*
X299466000Y-108282000D03*
X294386000Y-111682000D03*
X294386000Y-108282000D03*
X291846000Y-100154000D03*
X291846000Y-103554000D03*
X296926000Y-100154000D03*
X296926000Y-103554000D03*
X281686000Y-92534000D03*
X281686000Y-95934000D03*
X281686000Y-127430000D03*
X281686000Y-124030000D03*
X286766000Y-92534000D03*
X286766000Y-95934000D03*
X160782000Y-16334000D03*
X160782000Y-19734000D03*
X177038000Y-16334000D03*
X177038000Y-19734000D03*
X179578000Y-16334000D03*
X179578000Y-19734000D03*
X184658000Y-16334000D03*
X184658000Y-19734000D03*
X187198000Y-16334000D03*
X187198000Y-19734000D03*
X189738000Y-16334000D03*
X189738000Y-19734000D03*
X192278000Y-16334000D03*
X192278000Y-19734000D03*
X194818000Y-16334000D03*
X194818000Y-19734000D03*
X197358000Y-16334000D03*
X197358000Y-19734000D03*
X202438000Y-16334000D03*
X202438000Y-19734000D03*
X207518000Y-16334000D03*
X207518000Y-19734000D03*
X174244000Y-16334000D03*
X174244000Y-19734000D03*
X182118000Y-19734000D03*
X182118000Y-16334000D03*
X261366000Y-16334000D03*
X261366000Y-19734000D03*
X256286000Y-19734000D03*
X256286000Y-16334000D03*
X251206000Y-16334000D03*
X251206000Y-19734000D03*
X246126000Y-19734000D03*
X246126000Y-16334000D03*
X236982000Y-27862000D03*
X236982000Y-24462000D03*
X231902000Y-27862000D03*
X231902000Y-24462000D03*
X234442000Y-24462000D03*
X234442000Y-27862000D03*
X226822000Y-19734000D03*
X226822000Y-16334000D03*
X229362000Y-27862000D03*
X229362000Y-24462000D03*
X224282000Y-27862000D03*
X224282000Y-24462000D03*
X310134000Y-37924000D03*
X310134000Y-41324000D03*
X263906000Y-16334000D03*
X263906000Y-19734000D03*
X268986000Y-16334000D03*
X268986000Y-19734000D03*
X286766000Y-16334000D03*
X286766000Y-19734000D03*
X291846000Y-16334000D03*
X291846000Y-19734000D03*
X296926000Y-16334000D03*
X296926000Y-19734000D03*
X266446000Y-16334000D03*
X266446000Y-19734000D03*
X271526000Y-16334000D03*
X271526000Y-19734000D03*
X274066000Y-16334000D03*
X274066000Y-19734000D03*
X276606000Y-16334000D03*
X276606000Y-19734000D03*
X279146000Y-16334000D03*
X279146000Y-19734000D03*
X281686000Y-16334000D03*
X281686000Y-19734000D03*
X284226000Y-16334000D03*
X284226000Y-19734000D03*
X289306000Y-16334000D03*
X289306000Y-19734000D03*
X294386000Y-16334000D03*
X294386000Y-19734000D03*
X299466000Y-16334000D03*
X299466000Y-19734000D03*
X307086000Y-16334000D03*
X307086000Y-19734000D03*
X304546000Y-16334000D03*
X304546000Y-19734000D03*
X306324000Y-48846000D03*
X306324000Y-52246000D03*
X140462000Y-132158000D03*
X140462000Y-135558000D03*
X113538000Y-16334000D03*
X113538000Y-19734000D03*
X142494000Y-16334000D03*
X142494000Y-19734000D03*
X158242000Y-16334000D03*
X158242000Y-19734000D03*
X291846000Y-144702000D03*
X291846000Y-141302000D03*
X296926000Y-127430000D03*
X296926000Y-124030000D03*
X296926000Y-135050000D03*
X296926000Y-131650000D03*
X296926000Y-141302000D03*
X296926000Y-144702000D03*
X286766000Y-141302000D03*
X286766000Y-144702000D03*
X286766000Y-131650000D03*
X286766000Y-135050000D03*
X291846000Y-131650000D03*
X291846000Y-135050000D03*
X291846000Y-119302000D03*
X291846000Y-115902000D03*
X289306000Y-95934000D03*
X289306000Y-92534000D03*
X294386000Y-92534000D03*
X294386000Y-95934000D03*
X296926000Y-108282000D03*
X296926000Y-111682000D03*
X291846000Y-111682000D03*
X291846000Y-108282000D03*
X289306000Y-100154000D03*
X289306000Y-103554000D03*
X284226000Y-127430000D03*
X284226000Y-124030000D03*
X284226000Y-92534000D03*
X284226000Y-95934000D03*
X163322000Y-16334000D03*
X163322000Y-19734000D03*
X199898000Y-16334000D03*
X199898000Y-19734000D03*
X204978000Y-16334000D03*
X204978000Y-19734000D03*
X258826000Y-16334000D03*
X258826000Y-19734000D03*
X253746000Y-16334000D03*
X253746000Y-19734000D03*
X248666000Y-16334000D03*
X248666000Y-19734000D03*
X243586000Y-16334000D03*
X243586000Y-19734000D03*
X236982000Y-16334000D03*
X236982000Y-19734000D03*
X231902000Y-16334000D03*
X231902000Y-19734000D03*
X234442000Y-19734000D03*
X234442000Y-16334000D03*
X217678000Y-19734000D03*
X217678000Y-16334000D03*
X229362000Y-16334000D03*
X229362000Y-19734000D03*
X224282000Y-16334000D03*
X224282000Y-19734000D03*
X310134000Y-34974000D03*
X310134000Y-31574000D03*
X302006000Y-16334000D03*
X302006000Y-19734000D03*
X303784000Y-48846000D03*
X303784000Y-52246000D03*
X65278000Y-116762000D03*
X65278000Y-113362000D03*
X153670000Y-138508000D03*
X153670000Y-141908000D03*
X127762000Y-131650000D03*
X127762000Y-135050000D03*
X14224000Y-74852000D03*
X14224000Y-71452000D03*
X78486000Y-78154000D03*
X78486000Y-74754000D03*
X73406000Y-78154000D03*
X73406000Y-74754000D03*
X70866000Y-78154000D03*
X70866000Y-74754000D03*
X75946000Y-78154000D03*
X75946000Y-74754000D03*
X68326000Y-78154000D03*
X68326000Y-74754000D03*
X63246000Y-78154000D03*
X63246000Y-74754000D03*
X260096000Y-67232000D03*
X260096000Y-63832000D03*
X293116000Y-72312000D03*
X293116000Y-68912000D03*
X134112000Y-19734000D03*
X134112000Y-16334000D03*
X148082000Y-16334000D03*
X148082000Y-19734000D03*
X295656000Y-72312000D03*
X295656000Y-68912000D03*
X300736000Y-68912000D03*
X300736000Y-72312000D03*
X303276000Y-72312000D03*
X303276000Y-68912000D03*
X308356000Y-68912000D03*
X308356000Y-72312000D03*
X153162000Y-19734000D03*
X153162000Y-16334000D03*
X155702000Y-16334000D03*
X155702000Y-19734000D03*
X289052000Y-60628000D03*
X289052000Y-57228000D03*
X290576000Y-68912000D03*
X290576000Y-72312000D03*
X308356000Y-65454000D03*
X308356000Y-62054000D03*
X305816000Y-65454000D03*
X305816000Y-62054000D03*
X306070000Y-55196000D03*
X306070000Y-58596000D03*
X221742000Y-27862000D03*
X221742000Y-24462000D03*
X265176000Y-63832000D03*
X265176000Y-67232000D03*
X267716000Y-63832000D03*
X267716000Y-67232000D03*
X215138000Y-19734000D03*
X215138000Y-16334000D03*
X275336000Y-60628000D03*
X275336000Y-57228000D03*
X283972000Y-60628000D03*
X283972000Y-57228000D03*
X277876000Y-60628000D03*
X277876000Y-57228000D03*
X181610000Y-28018000D03*
X181610000Y-31418000D03*
X179070000Y-28018000D03*
X179070000Y-31418000D03*
X281686000Y-100154000D03*
X281686000Y-103554000D03*
X43942000Y-105742000D03*
X43942000Y-109142000D03*
X38862000Y-105742000D03*
X38862000Y-109142000D03*
X41402000Y-105742000D03*
X41402000Y-109142000D03*
X56642000Y-109142000D03*
X56642000Y-105742000D03*
X54102000Y-109142000D03*
X54102000Y-105742000D03*
X51562000Y-105742000D03*
X51562000Y-109142000D03*
X49022000Y-109142000D03*
X49022000Y-105742000D03*
X11684000Y-129970000D03*
X11684000Y-126570000D03*
X11684000Y-113362000D03*
X11684000Y-116762000D03*
X14224000Y-116762000D03*
X14224000Y-113362000D03*
X67818000Y-113362000D03*
X67818000Y-116762000D03*
X98298000Y-25478000D03*
X98298000Y-28878000D03*
X100838000Y-25478000D03*
X100838000Y-28878000D03*
X219202000Y-27862000D03*
X219202000Y-24462000D03*
X14224000Y-129970000D03*
X14224000Y-126570000D03*
X125222000Y-125554000D03*
X125222000Y-128954000D03*
X143002000Y-139270000D03*
X143002000Y-142670000D03*
X303022000Y-39702000D03*
X303022000Y-43102000D03*
X105918000Y-25478000D03*
X105918000Y-28878000D03*
X103378000Y-25478000D03*
X103378000Y-28878000D03*
X216662000Y-27862000D03*
X216662000Y-24462000D03*
X11684000Y-123366000D03*
X11684000Y-119966000D03*
X11684000Y-139778000D03*
X11684000Y-143178000D03*
X25654000Y-57990000D03*
X25654000Y-61390000D03*
X23114000Y-50878000D03*
X23114000Y-54278000D03*
X110998000Y-25478000D03*
X110998000Y-28878000D03*
X108458000Y-25478000D03*
X108458000Y-28878000D03*
X284226000Y-100154000D03*
X284226000Y-103554000D03*
X11684000Y-136574000D03*
X11684000Y-133174000D03*
X140462000Y-139270000D03*
X140462000Y-142670000D03*
X289306000Y-115902000D03*
X289306000Y-119302000D03*
X262636000Y-63832000D03*
X262636000Y-67232000D03*
X14224000Y-136574000D03*
X14224000Y-133174000D03*
X137922000Y-139270000D03*
X137922000Y-142670000D03*
X70358000Y-19734000D03*
X70358000Y-16334000D03*
X281686000Y-131650000D03*
X281686000Y-135050000D03*
X14224000Y-139778000D03*
X14224000Y-143178000D03*
X300482000Y-39702000D03*
X300482000Y-43102000D03*
X196088000Y-33958000D03*
X196088000Y-30558000D03*
X14224000Y-119966000D03*
X14224000Y-123366000D03*
X135382000Y-139270000D03*
X135382000Y-142670000D03*
X284226000Y-131650000D03*
X284226000Y-135050000D03*
X127762000Y-125554000D03*
X127762000Y-128954000D03*
X284226000Y-141302000D03*
X284226000Y-144702000D03*
X93218000Y-16334000D03*
X93218000Y-19734000D03*
X90678000Y-16334000D03*
X90678000Y-19734000D03*
X251968000Y-72722000D03*
X251968000Y-76122000D03*
X254508000Y-72722000D03*
X254508000Y-76122000D03*
X288036000Y-72312000D03*
X288036000Y-68912000D03*
X286512000Y-60628000D03*
X286512000Y-57228000D03*
X281432000Y-60628000D03*
X281432000Y-57228000D03*
X62230000Y-59006000D03*
X62230000Y-62406000D03*
X298196000Y-68912000D03*
X298196000Y-72312000D03*
X305816000Y-72312000D03*
X305816000Y-68912000D03*
D28*
X22352000Y-71452000D03*
X22352000Y-74852000D03*
X103632000Y-54434000D03*
X103632000Y-57834000D03*
X77724000Y-144702000D03*
X77724000Y-141302000D03*
X168910000Y-35482000D03*
X168910000Y-32082000D03*
X283210000Y-68912000D03*
X283210000Y-72312000D03*
X114300000Y-89076000D03*
X114300000Y-85676000D03*
X86360000Y-34974000D03*
X86360000Y-31574000D03*
X24638000Y-83742000D03*
X24638000Y-80342000D03*
X40132000Y-87044000D03*
X40132000Y-83644000D03*
X9906000Y-81964000D03*
X9906000Y-78564000D03*
X85852000Y-160098000D03*
X85852000Y-163498000D03*
X19304000Y-169340000D03*
X19304000Y-165940000D03*
X35814000Y-169086000D03*
X35814000Y-165686000D03*
X49276000Y-169086000D03*
X49276000Y-165686000D03*
X114046000Y-25478000D03*
X114046000Y-28878000D03*
X309118000Y-58596000D03*
X309118000Y-55196000D03*
X302768000Y-58596000D03*
X302768000Y-55196000D03*
X240030000Y-16334000D03*
X240030000Y-19734000D03*
X221234000Y-16334000D03*
X221234000Y-19734000D03*
X38100000Y-146636000D03*
X38100000Y-150036000D03*
X43434000Y-118286000D03*
X43434000Y-114886000D03*
X121666000Y-138098000D03*
X121666000Y-134698000D03*
X17526000Y-46814000D03*
X17526000Y-50214000D03*
X67310000Y-107872000D03*
X67310000Y-104472000D03*
X153162000Y-135050000D03*
X153162000Y-131650000D03*
X97028000Y-109650000D03*
X97028000Y-106250000D03*
X132080000Y-128954000D03*
X132080000Y-125554000D03*
X29210000Y-70534000D03*
X29210000Y-67134000D03*
X259588000Y-92632000D03*
X259588000Y-89232000D03*
D27*
X289306000Y-111682000D03*
X289306000Y-108282000D03*
D29*
X39878000Y-4699000D03*
X33118000Y-5509000D03*
X46638000Y-5509000D03*
D11*
X36528000Y-8499000D03*
X43228000Y-8499000D03*
X36528000Y-10999000D03*
X43228000Y-10999000D03*
D30*
X55586000Y-24108000D03*
X54078000Y-14408000D03*
X25678000Y-14408000D03*
X25186000Y-24108000D03*
D23*
X5334000Y-31242000D03*
X5334000Y-24130000D03*
X10414000Y-31242000D03*
X10414000Y-24130000D03*
X15494000Y-31242000D03*
X15494000Y-24130000D03*
X20574000Y-31242000D03*
X20574000Y-24130000D03*
D11*
X5334000Y-35306000D03*
X5334000Y-20066000D03*
X9398000Y-35306000D03*
X9398000Y-20066000D03*
X15494000Y-35306000D03*
X15494000Y-20066000D03*
D17*
X5334000Y-31242000D03*
X5334000Y-24130000D03*
X10414000Y-31242000D03*
X10414000Y-24130000D03*
X15494000Y-31242000D03*
X15494000Y-24130000D03*
D11*
X21590000Y-35306000D03*
X21590000Y-20066000D03*
D17*
X20574000Y-24130000D03*
X20574000Y-31242000D03*
D31*
X158496000Y-187960000D03*
D22*
X158496000Y-187960000D03*
D32*
X49054000Y-45122000D03*
X51054000Y-45122000D03*
X49054000Y-47122000D03*
X51054000Y-47122000D03*
X49054000Y-49122000D03*
X51054000Y-49122000D03*
X49054000Y-51122000D03*
X51054000Y-51122000D03*
X49054000Y-53122000D03*
X51054000Y-53122000D03*
X49054000Y-55122000D03*
X51054000Y-55122000D03*
X49054000Y-57122000D03*
X51054000Y-57122000D03*
X49054000Y-59122000D03*
X51054000Y-59122000D03*
X49054000Y-61122000D03*
X51054000Y-61122000D03*
X49054000Y-63122000D03*
X51054000Y-63122000D03*
X49054000Y-65122000D03*
X51054000Y-65122000D03*
X49054000Y-67122000D03*
X51054000Y-67122000D03*
X49054000Y-69122000D03*
X51054000Y-69122000D03*
X49054000Y-71122000D03*
X51054000Y-71122000D03*
X49054000Y-73122000D03*
X51054000Y-73122000D03*
X49054000Y-75122000D03*
X51054000Y-75122000D03*
X49054000Y-77122000D03*
X51054000Y-77122000D03*
X49054000Y-79122000D03*
X51054000Y-79122000D03*
X49054000Y-81122000D03*
X51054000Y-81122000D03*
X49054000Y-83122000D03*
X51054000Y-83122000D03*
X49054000Y-85122000D03*
X51054000Y-85122000D03*
X49054000Y-87122000D03*
D33*
X51054000Y-87122000D03*
D11*
X49022000Y-133858000D03*
X51562000Y-133858000D03*
X54102000Y-133858000D03*
X56642000Y-133858000D03*
X59182000Y-133858000D03*
X61722000Y-133858000D03*
X64262000Y-133858000D03*
X66802000Y-133858000D03*
X69342000Y-133858000D03*
X71882000Y-133858000D03*
X74422000Y-133858000D03*
X76962000Y-133858000D03*
X79502000Y-133858000D03*
X82042000Y-133858000D03*
X84582000Y-133858000D03*
X87122000Y-133858000D03*
X89662000Y-133858000D03*
X92202000Y-133858000D03*
X94742000Y-133858000D03*
X97282000Y-133858000D03*
X99822000Y-133858000D03*
X99822000Y-149098000D03*
X97282000Y-149098000D03*
X94742000Y-149098000D03*
X92202000Y-149098000D03*
X89662000Y-149098000D03*
X87122000Y-149098000D03*
X84582000Y-149098000D03*
X82042000Y-149098000D03*
X79502000Y-149098000D03*
X76962000Y-149098000D03*
X74422000Y-149098000D03*
X71882000Y-149098000D03*
X69342000Y-149098000D03*
X66802000Y-149098000D03*
X64262000Y-149098000D03*
X61722000Y-149098000D03*
X59182000Y-149098000D03*
X56642000Y-149098000D03*
X54102000Y-149098000D03*
X51562000Y-149098000D03*
D12*
X49022000Y-149098000D03*
D32*
X154868000Y-26130000D03*
X153618000Y-24130000D03*
X152368000Y-26130000D03*
X151118000Y-24130000D03*
X149868000Y-26130000D03*
X147368000Y-26130000D03*
X148618000Y-24130000D03*
X146118000Y-24130000D03*
X144868000Y-26130000D03*
X143618000Y-24130000D03*
X142368000Y-26130000D03*
X141118000Y-24130000D03*
X139868000Y-26130000D03*
X138618000Y-24130000D03*
X137368000Y-26130000D03*
X136118000Y-24130000D03*
X134868000Y-26130000D03*
X133618000Y-24130000D03*
X132368000Y-26130000D03*
X131118000Y-24130000D03*
X129868000Y-26130000D03*
X128618000Y-24130000D03*
X127368000Y-26130000D03*
X126118000Y-24130000D03*
X124868000Y-26130000D03*
X123618000Y-24130000D03*
X122368000Y-26130000D03*
X121118000Y-24130000D03*
X119868000Y-26130000D03*
D33*
X118618000Y-24130000D03*
D34*
X142434000Y-5952000D03*
D35*
X146184000Y-9652000D03*
X138684000Y-9652000D03*
D36*
X138684000Y-9652000D03*
X146184000Y-9652000D03*
D37*
X142434000Y-5952000D03*
D34*
X129734000Y-5952000D03*
D35*
X133484000Y-9652000D03*
X125984000Y-9652000D03*
D36*
X125984000Y-9652000D03*
X133484000Y-9652000D03*
D37*
X129734000Y-5952000D03*
D34*
X63694000Y-5952000D03*
D35*
X67444000Y-9652000D03*
X59944000Y-9652000D03*
D36*
X59944000Y-9652000D03*
X67444000Y-9652000D03*
D37*
X63694000Y-5952000D03*
D17*
X306116000Y-134323000D03*
X306116000Y-137093000D03*
X306116000Y-139863000D03*
X306116000Y-142633000D03*
X303276000Y-132938000D03*
X303276000Y-135708000D03*
X303276000Y-138478000D03*
X303276000Y-141248000D03*
D18*
X304696000Y-125978000D03*
X304696000Y-150978000D03*
D20*
X303276000Y-144018000D03*
D19*
X304696000Y-150978000D03*
X304696000Y-125978000D03*
D17*
X306116000Y-102319000D03*
X306116000Y-105089000D03*
X306116000Y-107859000D03*
X306116000Y-110629000D03*
X303276000Y-100934000D03*
X303276000Y-103704000D03*
X303276000Y-106474000D03*
X303276000Y-109244000D03*
D18*
X304696000Y-93974000D03*
X304696000Y-118974000D03*
D20*
X303276000Y-112014000D03*
D19*
X304696000Y-118974000D03*
X304696000Y-93974000D03*
M02*
