G04 #@! TF.GenerationSoftware,KiCad,Pcbnew,(5.1.0)-1*
G04 #@! TF.CreationDate,2020-01-29T23:37:05+00:00*
G04 #@! TF.ProjectId,Amiga600,416d6967-6136-4303-902e-6b696361645f,rev?*
G04 #@! TF.SameCoordinates,Original*
G04 #@! TF.FileFunction,Profile,NP*
%FSLAX46Y46*%
G04 Gerber Fmt 4.6, Leading zero omitted, Abs format (unit mm)*
G04 Created by KiCad (PCBNEW (5.1.0)-1) date 2020-01-29 23:37:05*
%MOMM*%
%LPD*%
G04 APERTURE LIST*
%ADD10C,0.050000*%
G04 APERTURE END LIST*
D10*
X236000000Y-129000000D02*
X236500000Y-128500000D01*
X184500000Y-128500000D02*
X185000000Y-129000000D01*
X314000000Y-87020000D02*
G75*
G02X315270000Y-85750000I1270000J0D01*
G01*
X275230000Y-120000000D02*
G75*
G02X276500000Y-121270000I0J-1270000D01*
G01*
X236500000Y-121270000D02*
G75*
G02X237770000Y-120000000I1270000J0D01*
G01*
X183230000Y-120000000D02*
G75*
G02X184500000Y-121270000I0J-1270000D01*
G01*
X164500000Y-121270000D02*
G75*
G02X165770000Y-120000000I1270000J0D01*
G01*
X276500000Y-156750000D02*
X314000000Y-156750000D01*
X314000000Y-87020000D02*
X314000000Y-156750000D01*
X317000000Y-85750000D02*
X315270000Y-85750000D01*
X317000000Y0D02*
X317000000Y-85750000D01*
X276500000Y-121270000D02*
X276500000Y-156750000D01*
X237770000Y-120000000D02*
X275230000Y-120000000D01*
X236500000Y-128500000D02*
X236500000Y-121270000D01*
X185000000Y-129000000D02*
X236000000Y-129000000D01*
X184500000Y-121270000D02*
X184500000Y-128500000D01*
X165770000Y-120000000D02*
X183230000Y-120000000D01*
X164500000Y-194000000D02*
X164500000Y-121270000D01*
X0Y-194000000D02*
X164500000Y-194000000D01*
X0Y0D02*
X317000000Y0D01*
X0Y0D02*
X0Y-194000000D01*
M02*
