M48
; DRILL file {KiCad (5.1.0)-1} date 29/01/2020 23:38:22
; FORMAT={-:-/ absolute / metric / decimal}
; #@! TF.CreationDate,2020-01-29T23:38:22+00:00
; #@! TF.GenerationSoftware,Kicad,Pcbnew,(5.1.0)-1
; #@! TF.FileFunction,Plated,1,4,PTH
FMAT,2
METRIC
T1C0.300
T2C0.762
T3C0.800
T4C1.000
T5C1.200
T6C1.250
T7C1.300
T8C1.500
T9C2.000
T10C2.500
T11C3.200
T12C3.500
%
G90
G05
T1
X4.035Y-93.638
X4.641Y-81.56
X6.918Y-43.221
X7.496Y-52.266
X7.528Y-49.016
X9.262Y-108.614
X9.677Y-84.17
X9.75Y-77.344
X9.75Y-80.305
X9.791Y-113.597
X10.22Y-160.699
X10.385Y-84.709
X11.247Y-131.829
X11.5Y-117.657
X11.5Y-121.239
X11.5Y-127.709
X12.375Y-40.233
X12.375Y-43.221
X12.828Y-141.607
X13.492Y-131.829
X13.688Y-85.73
X13.776Y-168.731
X13.844Y-167.61
X14.04Y-66.31
X14.04Y-73.276
X14.04Y-114.7
X14.04Y-124.187
X14.04Y-127.711
X14.474Y-87.013
X14.845Y-163.15
X15.309Y-85.598
X15.465Y-90.669
X16.115Y-168.916
X16.342Y-84.513
X17.059Y-93.721
X17.11Y-62.327
X17.184Y-54.973
X17.25Y-45.586
X17.25Y-50.938
X17.415Y-168.78
X17.851Y-82.693
X18.655Y-167.489
X19.929Y-63.343
X20.623Y-95.281
X21.017Y-167.714
X21.986Y-57.744
X23.0Y-51.952
X23.25Y-65.487
X23.303Y-160.699
X23.303Y-170.767
X23.488Y-131.993
X23.865Y-94.186
X24.5Y-79.087
X24.5Y-84.68
X25.015Y-73.059
X25.643Y-66.123
X25.953Y-70.679
X26.405Y-94.666
X26.521Y-160.336
X27.04Y-128.167
X27.043Y-58.351
X27.285Y-162.586
X28.392Y-162.585
X28.788Y-93.654
X28.853Y-62.994
X29.188Y-49.822
X29.613Y-94.341
X29.825Y-162.579
X30.422Y-159.049
X30.75Y-58.724
X30.79Y-55.182
X30.805Y-163.055
X30.938Y-69.441
X30.97Y-91.249
X30.976Y-82.089
X31.547Y-82.879
X32.042Y-75.398
X32.204Y-100.879
X32.708Y-91.262
X32.769Y-82.971
X32.885Y-63.483
X33.105Y-159.54
X33.231Y-101.111
X33.353Y-80.46
X33.658Y-63.48
X33.676Y-62.719
X33.9Y-68.813
X34.155Y-70.596
X34.226Y-146.011
X34.27Y-159.4
X34.467Y-57.659
X34.652Y-79.931
X35.121Y-166.93
X35.26Y-136.302
X35.459Y-108.808
X35.566Y-157.511
X35.905Y-141.945
X36.054Y-98.303
X36.1Y-19.366
X36.244Y-140.409
X36.431Y-70.248
X36.65Y-139.249
X36.67Y-158.688
X36.75Y-52.778
X36.888Y-108.442
X37.121Y-138.15
X37.152Y-61.85
X37.591Y-77.745
X37.774Y-52.5
X38.0Y-145.596
X38.0Y-148.554
X38.136Y-133.366
X38.274Y-168.945
X38.534Y-63.556
X39.265Y-136.157
X39.452Y-135.368
X39.479Y-160.336
X39.496Y-70.389
X40.0Y-85.315
X40.024Y-136.629
X40.06Y-63.521
X40.062Y-97.844
X40.195Y-73.434
X40.244Y-47.145
X40.297Y-66.385
X40.538Y-87.67
X40.982Y-84.686
X41.072Y-93.638
X41.499Y-136.351
X41.768Y-160.333
X42.474Y-106.678
X42.762Y-167.735
X42.85Y-132.329
X42.971Y-137.802
X43.25Y-115.955
X43.527Y-58.019
X43.608Y-69.43
X43.61Y-167.381
X43.616Y-60.115
X43.8Y-107.552
X44.05Y-97.811
X44.069Y-46.231
X45.162Y-57.304
X45.33Y-27.808
X45.343Y-164.974
X45.796Y-92.096
X46.345Y-163.328
X46.438Y-114.55
X46.579Y-99.879
X46.822Y-132.721
X47.064Y-47.636
X47.121Y-142.214
X47.153Y-98.903
X47.16Y-168.857
X47.46Y-131.662
X48.294Y-159.161
X48.424Y-106.966
X49.0Y-164.576
X51.711Y-106.941
X52.065Y-78.039
X52.16Y-85.593
X52.21Y-115.184
X52.21Y-126.545
X52.332Y-74.369
X52.937Y-84.853
X52.953Y-98.847
X53.471Y-93.279
X53.95Y-101.664
X53.96Y-109.948
X54.729Y-160.336
X54.75Y-118.171
X54.758Y-171.193
X55.416Y-77.059
X55.489Y-97.0
X57.278Y-92.099
X57.964Y-59.318
X58.499Y-93.9
X59.0Y-68.319
X60.94Y-72.158
X61.464Y-38.317
X61.542Y-67.005
X61.873Y-86.814
X63.56Y-60.874
X64.475Y-40.232
X64.715Y-37.82
X64.75Y-69.279
X64.838Y-76.147
X64.957Y-153.521
X65.009Y-88.129
X65.25Y-114.692
X65.62Y-73.59
X66.0Y-35.282
X66.02Y-67.234
X66.341Y-101.334
X66.515Y-105.727
X66.754Y-38.004
X67.046Y-102.47
X67.162Y-109.704
X67.191Y-64.336
X67.75Y-123.093
X67.75Y-128.598
X67.785Y-39.998
X67.971Y-81.263
X68.56Y-69.278
X69.62Y-63.166
X69.92Y-66.176
X70.021Y-104.745
X70.049Y-108.413
X70.09Y-96.272
X70.273Y-150.831
X70.992Y-123.32
X71.028Y-81.553
X71.121Y-72.087
X71.146Y-151.377
X71.302Y-18.23
X71.36Y-96.455
X71.383Y-114.815
X71.621Y-123.949
X72.425Y-117.004
X72.63Y-99.498
X72.7Y-63.173
X72.852Y-73.572
X73.288Y-78.904
X73.737Y-22.34
X74.042Y-99.504
X74.95Y-84.969
X75.162Y-30.417
X75.297Y-86.97
X75.452Y-119.795
X75.911Y-118.721
X76.209Y-24.389
X76.44Y-116.972
X77.305Y-21.782
X77.5Y-142.438
X77.5Y-145.414
X77.651Y-85.591
X77.896Y-117.013
X78.98Y-94.012
X78.98Y-117.973
X79.285Y-142.038
X79.292Y-24.519
X79.306Y-62.794
X79.662Y-32.5
X79.74Y-118.106
X80.209Y-72.916
X80.25Y-81.329
X80.25Y-119.847
X80.297Y-136.076
X80.482Y-62.381
X80.941Y-95.966
X81.146Y-80.119
X81.357Y-132.646
X81.52Y-122.881
X81.524Y-72.693
X81.644Y-78.157
X81.661Y-79.034
X81.85Y-32.028
X81.85Y-44.976
X81.947Y-28.035
X81.963Y-93.097
X82.173Y-62.925
X82.174Y-77.616
X82.204Y-80.632
X82.612Y-117.629
X82.79Y-132.653
X83.159Y-95.882
X83.412Y-135.02
X83.416Y-85.648
X83.491Y-78.494
X83.977Y-81.394
X84.058Y-113.052
X84.154Y-132.172
X84.831Y-88.494
X85.034Y-59.19
X85.13Y-52.211
X85.186Y-84.294
X85.252Y-131.946
X85.346Y-119.967
X85.36Y-24.753
X85.555Y-85.67
X85.75Y-161.755
X86.036Y-79.964
X86.36Y-32.691
X86.448Y-56.917
X86.448Y-84.937
X86.514Y-88.996
X86.6Y-129.208
X86.757Y-165.899
X86.945Y-113.688
X87.148Y-164.689
X87.149Y-91.376
X87.441Y-79.762
X87.474Y-119.662
X87.808Y-25.295
X87.839Y-122.904
X87.839Y-129.208
X88.499Y-79.531
X88.655Y-159.948
X89.032Y-48.309
X89.14Y-129.208
X89.178Y-131.071
X89.286Y-100.991
X89.365Y-79.441
X89.365Y-85.631
X89.635Y-32.974
X89.7Y-114.1
X89.927Y-80.069
X90.16Y-115.886
X90.178Y-142.156
X90.181Y-112.804
X90.41Y-129.242
X90.485Y-103.332
X90.492Y-109.811
X90.495Y-114.594
X91.039Y-81.007
X91.225Y-121.638
X91.48Y-70.624
X91.706Y-129.208
X91.98Y-166.706
X92.065Y-79.648
X92.702Y-34.055
X92.821Y-129.476
X92.856Y-123.048
X92.934Y-68.883
X93.141Y-131.958
X93.253Y-84.701
X93.412Y-120.568
X93.483Y-79.441
X93.564Y-114.03
X93.757Y-110.513
X94.194Y-20.105
X94.255Y-121.527
X94.445Y-79.441
X94.654Y-128.903
X94.888Y-100.991
X95.086Y-114.011
X95.277Y-124.026
X95.528Y-120.873
X95.857Y-73.535
X95.883Y-145.087
X96.038Y-75.342
X96.151Y-95.588
X96.238Y-129.826
X96.238Y-115.289
X96.456Y-79.906
X96.481Y-87.916
X96.735Y-96.972
X96.8Y-73.564
X97.066Y-162.827
X97.29Y-105.096
X97.327Y-107.931
X97.704Y-123.944
X97.874Y-165.754
X98.06Y-24.3
X98.424Y-73.526
X98.768Y-105.406
X98.768Y-114.317
X99.1Y-70.706
X99.25Y-79.603
X99.25Y-85.172
X99.588Y-22.307
X99.685Y-120.873
X100.149Y-78.831
X100.37Y-52.431
X100.6Y-24.343
X100.708Y-42.636
X101.049Y-113.371
X101.592Y-87.034
X102.296Y-116.731
X102.865Y-125.121
X103.14Y-24.322
X103.141Y-135.626
X103.301Y-70.847
X103.302Y-65.54
X103.311Y-61.493
X103.323Y-67.068
X103.75Y-53.33
X104.257Y-68.764
X104.332Y-125.274
X105.02Y-38.425
X105.154Y-126.608
X105.261Y-68.76
X105.347Y-76.765
X105.533Y-57.665
X105.68Y-24.318
X106.35Y-32.017
X106.35Y-44.993
X106.404Y-76.596
X108.22Y-24.33
X108.441Y-69.34
X108.887Y-48.553
X109.064Y-70.449
X109.126Y-37.246
X109.153Y-71.851
X109.5Y-95.085
X109.71Y-68.758
X110.239Y-60.959
X110.76Y-24.323
X110.768Y-126.193
X110.803Y-86.364
X111.415Y-78.831
X111.553Y-128.012
X112.032Y-35.089
X112.195Y-25.816
X112.25Y-153.677
X112.301Y-86.488
X112.745Y-91.404
X113.3Y-18.065
X113.532Y-42.309
X113.709Y-32.952
X114.182Y-126.729
X114.5Y-106.949
X114.578Y-18.03
X115.84Y-18.064
X115.948Y-140.926
X116.025Y-126.198
X116.129Y-163.176
X116.131Y-26.391
X116.5Y-160.201
X116.884Y-166.618
X117.145Y-33.964
X117.331Y-136.702
X117.354Y-126.872
X117.368Y-144.547
X117.37Y-141.928
X117.444Y-125.995
X117.92Y-43.81
X118.0Y-95.074
X118.297Y-36.133
X118.551Y-94.542
X119.339Y-59.987
X119.966Y-90.846
X120.209Y-130.74
X120.226Y-145.68
X120.283Y-127.835
X120.3Y-118.599
X120.327Y-136.565
X120.75Y-57.938
X120.92Y-20.409
X121.087Y-121.587
X121.155Y-49.286
X121.57Y-114.15
X122.303Y-96.715
X122.846Y-97.672
X123.231Y-47.621
X123.358Y-71.083
X123.479Y-116.523
X123.654Y-150.888
X123.659Y-121.587
X123.921Y-132.341
X124.089Y-68.458
X124.448Y-151.609
X124.788Y-116.476
X125.137Y-114.913
X125.555Y-151.732
X125.703Y-91.08
X125.709Y-92.35
X125.716Y-90.047
X125.718Y-88.912
X125.719Y-93.62
X125.726Y-83.413
X125.729Y-96.86
X125.73Y-108.71
X125.759Y-95.011
X125.8Y-70.284
X126.004Y-85.691
X126.081Y-151.193
X126.432Y-97.767
X126.617Y-62.964
X126.649Y-112.92
X126.649Y-129.481
X126.911Y-152.155
X127.07Y-70.231
X127.29Y-86.22
X127.388Y-16.692
X127.436Y-67.758
X127.707Y-103.056
X128.75Y-45.788
X128.934Y-98.842
X128.962Y-162.726
X129.058Y-55.872
X129.379Y-101.63
X129.446Y-41.39
X129.569Y-69.809
X129.625Y-97.132
X129.683Y-74.808
X129.881Y-135.41
X129.958Y-116.778
X130.041Y-138.114
X130.161Y-162.236
X130.29Y-59.177
X130.471Y-66.079
X130.589Y-121.587
X130.656Y-146.986
X130.88Y-73.213
X130.88Y-98.766
X130.999Y-139.834
X131.38Y-150.082
X131.459Y-69.905
X131.935Y-66.414
X132.0Y-126.68
X132.0Y-129.68
X132.123Y-41.389
X132.289Y-141.217
X132.421Y-115.964
X132.433Y-86.927
X132.556Y-109.679
X132.614Y-66.029
X132.633Y-98.777
X132.83Y-56.189
X132.969Y-50.158
X133.0Y-113.926
X133.014Y-73.884
X133.42Y-66.719
X133.42Y-101.9
X133.509Y-63.229
X133.622Y-15.079
X133.981Y-130.776
X133.99Y-32.014
X134.062Y-62.496
X134.188Y-49.547
X134.662Y-103.622
X134.69Y-101.672
X134.75Y-42.612
X135.009Y-115.389
X135.37Y-56.196
X135.429Y-146.996
X135.604Y-118.604
X135.832Y-105.859
X135.88Y-115.323
X136.048Y-41.006
X136.48Y-110.065
X136.584Y-102.04
X136.711Y-133.58
X137.91Y-74.217
X137.96Y-136.418
X138.08Y-118.622
X138.13Y-140.436
X138.5Y-68.55
X139.158Y-113.207
X139.18Y-56.369
X139.23Y-138.414
X139.371Y-121.472
X139.392Y-136.754
X139.77Y-107.026
X139.95Y-36.91
X140.135Y-82.772
X140.249Y-127.014
X140.981Y-108.022
X141.04Y-103.497
X141.109Y-10.161
X141.13Y-40.0
X141.163Y-127.145
X141.244Y-46.209
X141.72Y-54.177
X141.89Y-143.17
X141.946Y-118.495
X141.963Y-114.176
X142.139Y-128.72
X142.5Y-36.663
X142.621Y-65.727
X142.912Y-75.476
X142.99Y-60.331
X143.04Y-109.762
X143.066Y-137.941
X143.388Y-127.021
X143.58Y-65.757
X143.58Y-103.454
X144.208Y-80.37
X144.26Y-53.838
X144.298Y-115.701
X144.589Y-19.172
X144.844Y-140.207
X144.85Y-68.55
X145.108Y-135.892
X145.14Y-94.177
X145.399Y-107.164
X145.53Y-56.196
X145.632Y-131.71
X145.649Y-137.683
X145.686Y-43.035
X145.724Y-121.59
X145.768Y-144.23
X145.779Y-140.955
X145.795Y-139.33
X145.796Y-145.455
X145.941Y-105.191
X146.124Y-15.059
X146.147Y-30.692
X146.282Y-106.258
X146.56Y-68.415
X146.627Y-147.756
X146.793Y-53.707
X146.832Y-107.62
X147.39Y-102.681
X147.814Y-36.593
X148.07Y-56.182
X148.202Y-109.304
X148.329Y-39.517
X148.633Y-136.548
X148.635Y-140.942
X148.654Y-135.626
X148.66Y-70.368
X148.814Y-102.701
X148.855Y-106.796
X148.875Y-48.578
X149.505Y-22.929
X149.93Y-70.367
X149.941Y-39.323
X150.402Y-120.47
X150.549Y-78.315
X150.573Y-80.899
X150.61Y-56.181
X150.752Y-82.204
X150.874Y-134.306
X150.881Y-131.744
X151.009Y-73.236
X151.181Y-85.707
X151.236Y-89.292
X151.255Y-86.689
X151.281Y-81.362
X151.292Y-84.504
X151.39Y-17.429
X151.587Y-62.656
X152.092Y-18.196
X152.118Y-71.12
X152.21Y-117.914
X152.747Y-115.18
X153.0Y-132.933
X153.0Y-135.909
X154.014Y-72.124
X154.137Y-84.331
X154.156Y-90.126
X154.375Y-46.293
X154.47Y-87.54
X154.5Y-54.064
X154.5Y-60.162
X154.763Y-94.395
X155.166Y-113.619
X155.175Y-74.097
X156.299Y-36.093
X156.98Y-109.316
X157.141Y-40.915
X157.752Y-47.176
X158.681Y-48.407
X159.091Y-65.961
X159.513Y-40.49
X159.655Y-39.726
X159.85Y-115.573
X159.999Y-66.129
X160.121Y-20.326
X160.387Y-116.102
X161.21Y-15.073
X161.343Y-104.183
X161.668Y-113.623
X161.746Y-103.126
X162.05Y-43.235
X162.152Y-58.348
X162.363Y-32.91
X162.424Y-20.19
X162.849Y-32.29
X163.433Y-41.452
X163.548Y-32.657
X163.567Y-57.004
X163.675Y-34.275
X163.999Y-57.82
X164.293Y-96.419
X165.137Y-33.089
X165.407Y-19.233
X166.248Y-50.064
X166.577Y-41.608
X166.851Y-49.529
X167.83Y-33.812
X168.171Y-19.218
X168.499Y-49.805
X168.623Y-28.904
X168.918Y-33.818
X169.245Y-30.834
X169.923Y-104.561
X170.46Y-43.424
X171.019Y-96.351
X171.823Y-30.952
X171.837Y-50.149
X172.554Y-25.362
X172.862Y-104.273
X173.0Y-50.146
X173.129Y-15.202
X173.556Y-27.119
X174.078Y-41.82
X174.085Y-29.245
X174.122Y-30.404
X174.492Y-25.909
X174.832Y-101.508
X174.976Y-30.959
X175.27Y-87.623
X175.565Y-19.309
X176.055Y-29.2
X176.772Y-106.659
X176.837Y-29.751
X177.318Y-57.731
X177.954Y-118.954
X178.168Y-42.463
X178.937Y-57.752
X178.959Y-42.057
X179.416Y-36.44
X179.436Y-37.71
X180.907Y-20.226
X182.02Y-17.434
X182.288Y-40.193
X182.849Y-45.752
X183.153Y-109.994
X183.606Y-47.872
X183.688Y-62.857
X183.688Y-111.894
X183.697Y-114.873
X184.0Y-26.826
X184.464Y-65.156
X184.472Y-115.109
X185.058Y-115.623
X185.069Y-71.12
X185.511Y-100.174
X185.587Y-116.544
X185.735Y-118.891
X186.16Y-89.962
X186.195Y-117.896
X186.245Y-22.299
X186.54Y-100.746
X186.559Y-115.412
X186.592Y-44.466
X186.734Y-86.629
X186.804Y-118.882
X186.957Y-46.393
X187.27Y-68.789
X187.681Y-60.25
X188.201Y-25.004
X188.445Y-117.152
X188.969Y-48.39
X189.18Y-45.37
X189.581Y-44.637
X189.841Y-55.02
X190.003Y-88.498
X190.278Y-91.081
X190.512Y-103.308
X190.66Y-60.297
X190.716Y-70.01
X190.804Y-75.054
X190.854Y-20.125
X190.998Y-86.701
X191.095Y-54.522
X191.137Y-37.727
X191.403Y-85.864
X191.445Y-46.595
X191.5Y-90.846
X191.5Y-102.424
X191.648Y-53.966
X191.809Y-115.778
X192.075Y-79.833
X192.265Y-118.864
X192.463Y-69.814
X192.612Y-87.979
X192.995Y-60.308
X193.156Y-92.783
X193.306Y-117.843
X193.701Y-71.159
X193.802Y-115.424
X194.44Y-69.757
X194.5Y-91.84
X194.5Y-97.616
X194.615Y-79.191
X195.787Y-35.104
X195.885Y-78.098
X195.895Y-106.323
X196.163Y-93.486
X196.171Y-80.897
X196.178Y-94.809
X196.656Y-29.32
X197.115Y-78.685
X197.165Y-110.059
X197.692Y-70.962
X198.232Y-118.805
X198.425Y-64.833
X198.425Y-78.103
X198.6Y-35.823
X198.785Y-104.39
X198.853Y-41.068
X198.951Y-108.668
X199.334Y-104.927
X199.408Y-95.352
X199.541Y-109.855
X199.698Y-64.851
X200.07Y-118.923
X200.611Y-40.552
X200.934Y-109.883
X200.965Y-64.971
X200.965Y-74.132
X201.276Y-15.199
X201.547Y-78.526
X201.629Y-115.74
X201.722Y-101.915
X201.987Y-57.378
X202.046Y-105.244
X202.148Y-55.981
X202.34Y-20.413
X202.475Y-117.744
X202.861Y-95.884
X203.004Y-79.684
X203.504Y-24.248
X203.702Y-90.943
X203.82Y-69.919
X203.918Y-112.841
X204.274Y-80.451
X204.435Y-102.91
X204.458Y-117.573
X204.785Y-77.916
X204.88Y-22.28
X204.998Y-27.637
X205.945Y-84.671
X206.014Y-98.162
X206.055Y-109.152
X206.25Y-34.926
X206.27Y-73.694
X206.815Y-115.472
X206.923Y-55.444
X207.376Y-116.006
X207.42Y-17.455
X207.479Y-98.77
X207.54Y-90.51
X207.635Y-30.762
X208.136Y-87.618
X208.319Y-41.376
X208.709Y-109.456
X208.806Y-22.639
X208.81Y-46.288
X208.887Y-118.887
X209.272Y-103.232
X209.272Y-116.954
X209.5Y-99.045
X209.862Y-108.575
X209.96Y-17.488
X210.221Y-47.366
X210.297Y-61.731
X210.5Y-109.046
X210.834Y-118.565
X210.858Y-41.374
X211.463Y-47.659
X211.475Y-109.046
X211.519Y-61.426
X211.642Y-118.145
X212.024Y-48.188
X212.156Y-115.407
X212.606Y-116.842
X212.851Y-118.91
X212.878Y-21.577
X212.934Y-64.712
X212.984Y-24.452
X213.498Y-60.897
X213.639Y-118.918
X213.838Y-16.3
X214.084Y-67.442
X214.281Y-118.39
X214.293Y-37.061
X214.302Y-65.774
X214.483Y-28.589
X214.519Y-46.984
X214.735Y-65.142
X215.244Y-118.923
X215.265Y-40.627
X215.265Y-54.972
X215.296Y-62.465
X215.437Y-28.388
X215.864Y-66.008
X216.032Y-75.049
X216.23Y-93.516
X216.411Y-84.762
X216.809Y-47.08
X216.897Y-30.292
X217.165Y-84.571
X217.165Y-94.158
X217.602Y-102.362
X217.79Y-28.492
X217.897Y-25.411
X218.047Y-113.751
X218.384Y-115.106
X218.511Y-74.254
X218.639Y-70.049
X219.274Y-44.085
X219.427Y-28.788
X219.648Y-79.075
X219.648Y-114.718
X220.234Y-59.504
X220.75Y-37.382
X220.75Y-39.587
X220.781Y-60.023
X221.04Y-64.852
X221.102Y-65.91
X221.141Y-63.794
X221.46Y-44.086
X221.583Y-73.263
X221.698Y-65.287
X222.232Y-118.916
X222.328Y-28.655
X222.795Y-91.227
X223.337Y-28.617
X223.773Y-47.06
X223.841Y-31.566
X224.3Y-26.295
X224.54Y-71.188
X224.551Y-59.35
X224.75Y-80.824
X224.75Y-86.908
X224.791Y-75.598
X225.041Y-66.255
X225.207Y-60.267
X225.63Y-111.797
X225.768Y-108.589
X225.781Y-18.179
X225.9Y-56.54
X225.978Y-63.212
X226.052Y-90.096
X226.364Y-71.343
X226.953Y-99.876
X227.0Y-44.092
X227.17Y-76.135
X227.218Y-68.377
X227.714Y-118.922
X228.44Y-74.822
X228.691Y-26.0
X228.879Y-13.994
X229.338Y-103.277
X229.542Y-99.885
X229.607Y-117.956
X229.71Y-76.14
X230.0Y-44.09
X230.969Y-100.325
X231.444Y-77.515
X231.465Y-25.995
X231.944Y-118.805
X232.1Y-42.584
X232.275Y-66.701
X233.511Y-40.514
X233.52Y-59.409
X234.185Y-90.856
X234.185Y-100.273
X234.185Y-114.284
X234.645Y-104.84
X234.79Y-59.518
X235.25Y-51.227
X235.369Y-63.914
X235.455Y-108.28
X236.522Y-44.129
X236.725Y-88.154
X236.749Y-40.084
X237.401Y-105.146
X237.459Y-63.925
X237.988Y-59.068
X237.995Y-100.273
X237.995Y-91.459
X238.656Y-64.511
X238.848Y-25.776
X239.265Y-97.641
X239.265Y-100.267
X239.31Y-68.153
X239.75Y-25.717
X239.935Y-53.683
X239.952Y-67.031
X239.959Y-61.906
X239.963Y-62.752
X240.071Y-82.689
X240.535Y-90.866
X240.535Y-100.256
X240.535Y-101.914
X241.326Y-44.277
X241.326Y-87.671
X241.705Y-115.073
X241.754Y-17.345
X242.179Y-20.664
X242.325Y-88.352
X242.5Y-39.805
X242.72Y-100.266
X243.075Y-97.625
X243.444Y-43.746
X243.96Y-29.221
X244.218Y-86.806
X244.237Y-84.8
X244.345Y-96.876
X244.743Y-115.566
X245.08Y-46.439
X245.23Y-35.18
X245.615Y-86.617
X245.67Y-55.843
X246.627Y-29.263
X247.111Y-20.309
X247.476Y-45.841
X247.731Y-30.389
X247.77Y-29.227
X247.77Y-34.185
X247.778Y-107.82
X248.155Y-66.792
X248.692Y-96.094
X249.425Y-94.966
X249.425Y-102.237
X249.575Y-108.187
X249.601Y-20.453
X250.037Y-110.942
X250.047Y-18.164
X250.31Y-31.264
X250.523Y-97.557
X250.538Y-101.9
X250.695Y-107.836
X251.148Y-21.28
X251.25Y-54.46
X251.37Y-101.571
X251.924Y-100.52
X251.953Y-21.621
X252.0Y-37.706
X252.0Y-40.662
X252.494Y-23.141
X252.514Y-115.566
X252.828Y-100.287
X252.861Y-20.786
X253.081Y-44.106
X253.785Y-29.181
X253.814Y-102.096
X254.46Y-26.322
X254.505Y-111.272
X255.13Y-20.307
X255.226Y-100.702
X256.399Y-54.421
X256.489Y-108.95
X256.514Y-26.1
X257.175Y-100.893
X257.516Y-29.105
X258.315Y-90.87
X258.315Y-97.607
X258.315Y-114.271
X258.875Y-73.614
X259.079Y-103.55
X259.756Y-91.066
X260.701Y-31.29
X260.703Y-104.785
X260.81Y-34.166
X261.509Y-67.71
X262.221Y-61.359
X262.6Y-20.133
X263.565Y-49.481
X264.25Y-38.91
X264.329Y-49.416
X264.687Y-115.926
X264.701Y-99.299
X264.707Y-103.364
X264.724Y-111.216
X265.23Y-29.111
X265.397Y-33.407
X265.508Y-101.775
X266.037Y-100.836
X266.19Y-56.907
X266.596Y-57.972
X267.056Y-51.261
X267.125Y-31.997
X267.5Y-105.2
X268.147Y-57.377
X268.177Y-109.684
X268.179Y-114.87
X268.73Y-56.896
X268.988Y-107.345
X269.263Y-51.067
X269.682Y-66.214
X269.943Y-54.714
X270.154Y-105.531
X270.262Y-43.905
X270.287Y-57.429
X270.541Y-21.564
X270.73Y-60.177
X271.07Y-105.694
X271.784Y-62.171
X272.071Y-50.055
X272.64Y-108.788
X272.993Y-61.27
X273.003Y-57.994
X273.134Y-114.067
X273.742Y-56.505
X273.916Y-60.597
X273.98Y-21.271
X274.22Y-67.629
X274.66Y-38.289
X274.688Y-51.173
X274.894Y-43.825
X275.685Y-43.442
X275.996Y-76.898
X276.305Y-35.251
X276.5Y-51.045
X276.572Y-74.914
X276.676Y-105.801
X277.5Y-58.433
X277.792Y-18.4
X278.837Y-70.901
X279.228Y-57.262
X279.275Y-107.389
X279.275Y-117.95
X279.886Y-67.586
X280.078Y-100.46
X280.222Y-81.352
X280.489Y-129.921
X280.719Y-54.104
X280.839Y-70.219
X281.38Y-59.068
X281.595Y-64.537
X281.6Y-21.505
X281.75Y-94.277
X281.75Y-130.587
X281.75Y-145.416
X281.995Y-84.367
X282.332Y-139.305
X282.587Y-115.227
X282.606Y-112.391
X282.694Y-133.25
X282.768Y-61.878
X282.778Y-109.528
X282.86Y-122.903
X283.007Y-135.565
X283.085Y-90.381
X283.135Y-93.897
X283.25Y-73.158
X283.335Y-51.005
X284.225Y-107.547
X284.225Y-119.442
X284.51Y-101.978
X285.405Y-69.546
X285.453Y-112.715
X285.5Y-56.06
X285.619Y-54.316
X285.666Y-114.674
X286.003Y-110.845
X286.382Y-54.302
X286.452Y-114.681
X286.455Y-65.546
X286.455Y-72.285
X286.83Y-94.266
X286.83Y-102.049
X286.933Y-55.437
X287.25Y-35.679
X287.25Y-38.723
X287.52Y-46.407
X287.93Y-67.839
X288.0Y-23.639
X288.33Y-70.815
X288.342Y-63.983
X288.464Y-62.118
X288.918Y-64.594
X289.37Y-109.45
X289.37Y-117.814
X289.37Y-132.947
X289.37Y-140.096
X289.582Y-126.222
X289.768Y-70.737
X291.128Y-70.183
X291.161Y-47.416
X291.271Y-143.062
X291.329Y-60.206
X291.465Y-21.353
X291.91Y-94.319
X291.91Y-101.432
X292.557Y-70.804
X292.688Y-101.509
X292.692Y-51.731
X292.957Y-126.955
X293.01Y-67.638
X293.696Y-44.08
X293.705Y-37.794
X293.71Y-56.497
X293.732Y-40.828
X294.45Y-112.456
X294.45Y-114.846
X294.45Y-132.934
X294.45Y-140.046
X295.327Y-52.228
X295.705Y-51.539
X295.852Y-20.37
X296.553Y-39.868
X296.65Y-48.278
X296.988Y-51.526
X296.99Y-94.258
X297.541Y-52.757
X298.325Y-100.635
X298.653Y-21.045
X298.79Y-58.277
X299.079Y-63.748
X299.348Y-45.444
X299.386Y-52.168
X299.482Y-61.828
X299.5Y-150.297
X299.53Y-112.444
X299.53Y-132.973
X299.757Y-64.149
X300.215Y-29.715
X300.864Y-141.466
X300.913Y-126.951
X301.111Y-64.193
X301.181Y-52.544
X301.385Y-66.559
X301.582Y-53.496
X301.712Y-40.613
X301.92Y-20.404
X302.355Y-51.484
X303.38Y-28.599
X303.969Y-29.572
X304.354Y-44.192
X304.382Y-56.994
X304.46Y-18.005
X305.208Y-32.654
X305.786Y-18.356
X306.042Y-67.846
X306.25Y-53.189
X306.679Y-32.556
X306.851Y-42.773
X306.869Y-63.907
X307.114Y-34.247
X307.122Y-33.255
X307.177Y-37.517
X307.702Y-32.707
X308.502Y-49.303
X308.659Y-48.393
X309.35Y-49.511
X309.429Y-36.218
X309.439Y-39.244
T2
X28.6Y-20.6
X31.1Y-20.6
X33.6Y-20.6
X36.1Y-20.6
X40.5Y-38.2
X43.0Y-38.2
X45.5Y-38.2
X48.0Y-38.2
X15.5Y-20.0
X15.5Y-35.5
X20.5Y-20.0
X20.5Y-35.5
X28.02Y-104.02
X28.02Y-106.56
X28.02Y-109.1
X28.02Y-111.64
X28.02Y-114.18
X28.02Y-116.72
X28.02Y-119.26
X28.02Y-121.8
X28.02Y-124.34
X28.02Y-126.88
X28.02Y-129.42
X28.02Y-131.96
X28.02Y-134.5
X28.02Y-137.04
X28.02Y-139.58
X28.02Y-142.12
X28.02Y-144.66
X29.93Y-102.75
X29.93Y-105.29
X29.93Y-107.83
X29.93Y-110.37
X29.93Y-112.91
X29.93Y-115.45
X29.93Y-117.99
X29.93Y-120.53
X29.93Y-123.07
X29.93Y-125.61
X29.93Y-128.15
X29.93Y-130.69
X29.93Y-133.23
X29.93Y-135.77
X29.93Y-138.31
X29.93Y-140.85
X29.93Y-143.39
X31.84Y-104.02
X31.84Y-106.56
X31.84Y-109.1
X31.84Y-111.64
X31.84Y-114.18
X31.84Y-116.72
X31.84Y-119.26
X31.84Y-121.8
X31.84Y-124.34
X31.84Y-126.88
X31.84Y-129.42
X31.84Y-131.96
X31.84Y-134.5
X31.84Y-137.04
X31.84Y-139.58
X31.84Y-142.12
X31.84Y-144.66
X33.75Y-102.75
X33.75Y-105.29
X33.75Y-107.83
X33.75Y-110.37
X33.75Y-112.91
X33.75Y-115.45
X33.75Y-117.99
X33.75Y-120.53
X33.75Y-123.07
X33.75Y-125.61
X33.75Y-128.15
X33.75Y-130.69
X33.75Y-133.23
X33.75Y-135.77
X33.75Y-138.31
X33.75Y-140.85
X33.75Y-143.39
X186.25Y-28.0
X186.25Y-33.0
X5.5Y-20.0
X5.5Y-35.5
X5.3Y-62.05
X5.3Y-67.65
X5.3Y-73.25
X7.0Y-60.3
X7.0Y-63.8
X7.0Y-65.9
X7.0Y-69.4
X7.0Y-71.5
X7.0Y-75.0
X9.5Y-60.3
X9.5Y-62.05
X9.5Y-63.8
X9.5Y-65.9
X9.5Y-67.65
X9.5Y-69.4
X9.5Y-71.5
X9.5Y-73.25
X9.5Y-75.0
X118.75Y-24.0
X120.0Y-26.0
X121.25Y-24.0
X122.5Y-26.0
X123.75Y-24.0
X125.0Y-26.0
X126.25Y-24.0
X127.5Y-26.0
X128.75Y-24.0
X130.0Y-26.0
X131.25Y-24.0
X132.5Y-26.0
X133.75Y-24.0
X135.0Y-26.0
X136.25Y-24.0
X137.5Y-26.0
X138.75Y-24.0
X140.0Y-26.0
X141.25Y-24.0
X142.5Y-26.0
X143.75Y-24.0
X145.0Y-26.0
X146.25Y-24.0
X147.5Y-26.0
X148.75Y-24.0
X150.0Y-26.0
X151.25Y-24.0
X152.5Y-26.0
X153.75Y-24.0
X155.0Y-26.0
X10.5Y-20.0
X10.5Y-35.5
X13.75Y-58.25
X13.75Y-60.75
X15.5Y-56.55
X15.5Y-60.75
X17.25Y-58.25
X17.25Y-60.75
T3
X59.55Y-57.95
X74.75Y-55.5
X74.75Y-60.4
X17.0Y-42.75
X22.0Y-42.75
X49.0Y-133.76
X49.0Y-149.0
X51.54Y-133.76
X51.54Y-149.0
X54.08Y-133.76
X54.08Y-149.0
X56.62Y-133.76
X56.62Y-149.0
X59.16Y-133.76
X59.16Y-149.0
X61.7Y-133.76
X61.7Y-149.0
X64.24Y-133.76
X64.24Y-149.0
X66.78Y-133.76
X66.78Y-149.0
X69.32Y-133.76
X69.32Y-149.0
X71.86Y-133.76
X71.86Y-149.0
X74.4Y-133.76
X74.4Y-149.0
X76.94Y-133.76
X76.94Y-149.0
X79.48Y-133.76
X79.48Y-149.0
X82.02Y-133.76
X82.02Y-149.0
X84.56Y-133.76
X84.56Y-149.0
X87.1Y-133.76
X87.1Y-149.0
X89.64Y-133.76
X89.64Y-149.0
X92.18Y-133.76
X92.18Y-149.0
X94.72Y-133.76
X94.72Y-149.0
X97.26Y-133.76
X97.26Y-149.0
X99.8Y-133.76
X99.8Y-149.0
X27.75Y-50.0
X27.75Y-55.0
X108.25Y-57.5
X108.25Y-72.74
X115.87Y-57.5
X115.87Y-72.74
X120.5Y-160.38
X120.5Y-168.0
X123.04Y-160.38
X123.04Y-168.0
X125.58Y-160.38
X125.58Y-168.0
X128.12Y-160.38
X128.12Y-168.0
X130.66Y-160.38
X130.66Y-168.0
X133.2Y-160.38
X133.2Y-168.0
X135.74Y-160.38
X135.74Y-168.0
X138.28Y-160.38
X138.28Y-168.0
X140.82Y-160.38
X140.82Y-168.0
X143.36Y-160.38
X143.36Y-168.0
X228.5Y-22.0
X233.5Y-22.0
X60.5Y-18.5
X65.5Y-18.5
X49.0Y-45.0
X49.0Y-47.0
X49.0Y-49.0
X49.0Y-51.0
X49.0Y-53.0
X49.0Y-55.0
X49.0Y-57.0
X49.0Y-59.0
X49.0Y-61.0
X49.0Y-63.0
X49.0Y-65.0
X49.0Y-67.0
X49.0Y-69.0
X49.0Y-71.0
X49.0Y-73.0
X49.0Y-75.0
X49.0Y-77.0
X49.0Y-79.0
X49.0Y-81.0
X49.0Y-83.0
X49.0Y-85.0
X49.0Y-87.0
X51.0Y-45.0
X51.0Y-47.0
X51.0Y-49.0
X51.0Y-51.0
X51.0Y-53.0
X51.0Y-55.0
X51.0Y-57.0
X51.0Y-59.0
X51.0Y-61.0
X51.0Y-63.0
X51.0Y-65.0
X51.0Y-67.0
X51.0Y-69.0
X51.0Y-71.0
X51.0Y-73.0
X51.0Y-75.0
X51.0Y-77.0
X51.0Y-79.0
X51.0Y-81.0
X51.0Y-83.0
X51.0Y-85.0
X51.0Y-87.0
T4
X217.76Y-9.5
X219.145Y-6.66
X220.53Y-9.5
X221.915Y-6.66
X223.3Y-9.5
X224.685Y-6.66
X226.07Y-9.5
X227.455Y-6.66
X228.84Y-9.5
X230.225Y-6.66
X231.61Y-9.5
X232.995Y-6.66
X234.38Y-9.5
X235.765Y-6.66
X237.15Y-9.5
X238.535Y-6.66
X239.92Y-9.5
X241.305Y-6.66
X242.69Y-9.5
X244.075Y-6.66
X245.46Y-9.5
X246.845Y-6.66
X248.23Y-9.5
X249.615Y-6.66
X251.0Y-9.5
X303.5Y-100.92
X303.5Y-103.69
X303.5Y-106.46
X303.5Y-109.23
X303.5Y-112.0
X306.34Y-102.305
X306.34Y-105.075
X306.34Y-107.845
X306.34Y-110.615
X275.0Y-9.5
X276.385Y-6.66
X277.77Y-9.5
X279.155Y-6.66
X280.54Y-9.5
X281.925Y-6.66
X283.31Y-9.5
X284.695Y-6.66
X286.08Y-9.5
X287.465Y-6.66
X288.85Y-9.5
X290.235Y-6.66
X291.62Y-9.5
X293.005Y-6.66
X294.39Y-9.5
X295.775Y-6.66
X297.16Y-9.5
X298.545Y-6.66
X299.93Y-9.5
X301.315Y-6.66
X302.7Y-9.5
X304.085Y-6.66
X305.47Y-9.5
X127.985Y-28.75
X130.525Y-28.75
X133.065Y-28.75
X135.605Y-28.75
X140.685Y-28.75
X143.225Y-28.75
X145.765Y-28.75
X81.53Y-9.5
X82.915Y-6.66
X84.3Y-9.5
X85.685Y-6.66
X87.07Y-9.5
X88.455Y-6.66
X89.84Y-9.5
X91.225Y-6.66
X92.61Y-9.5
X93.995Y-6.66
X95.38Y-9.5
X96.765Y-6.66
X98.15Y-9.5
X99.535Y-6.66
X100.92Y-9.5
X102.305Y-6.66
X103.69Y-9.5
X105.075Y-6.66
X106.46Y-9.5
X107.845Y-6.66
X109.23Y-9.5
X110.615Y-6.66
X112.0Y-9.5
X303.5Y-132.92
X303.5Y-135.69
X303.5Y-138.46
X303.5Y-141.23
X303.5Y-144.0
X306.34Y-134.305
X306.34Y-137.075
X306.34Y-139.845
X306.34Y-142.615
X287.0Y-151.25
X289.54Y-151.25
X292.08Y-151.25
X294.62Y-151.25
X263.82Y-23.0
X263.82Y-25.54
X266.36Y-23.0
X266.36Y-25.54
X268.9Y-23.0
X268.9Y-25.54
X271.44Y-23.0
X271.44Y-25.54
X273.98Y-23.0
X273.98Y-25.54
X276.52Y-23.0
X276.52Y-25.54
X279.06Y-23.0
X279.06Y-25.54
X281.6Y-23.0
X281.6Y-25.54
X284.14Y-23.0
X284.14Y-25.54
X286.68Y-23.0
X286.68Y-25.54
X289.22Y-23.0
X289.22Y-25.54
X291.76Y-23.0
X291.76Y-25.54
X294.3Y-23.0
X294.3Y-25.54
X296.84Y-23.0
X296.84Y-25.54
X299.38Y-23.0
X299.38Y-25.54
X301.92Y-23.0
X301.92Y-25.54
X304.46Y-23.0
X304.46Y-25.54
X163.25Y-23.75
X165.79Y-23.75
X168.33Y-23.75
X170.87Y-23.75
X161.0Y-9.5
X162.385Y-6.66
X163.77Y-9.5
X165.155Y-6.66
X166.54Y-9.5
X167.925Y-6.66
X169.31Y-9.5
X170.695Y-6.66
X172.08Y-9.5
X173.465Y-6.66
X174.85Y-9.5
X176.235Y-6.66
X177.62Y-9.5
X179.005Y-6.66
X180.39Y-9.5
X181.775Y-6.66
X183.16Y-9.5
X184.545Y-6.66
X185.93Y-9.5
X187.315Y-6.66
X188.7Y-9.5
X190.085Y-6.66
X191.47Y-9.5
X192.855Y-6.66
X194.24Y-9.5
T5
X77.0Y-64.25
X77.0Y-69.25
T6
X15.5Y-24.0
X15.5Y-31.5
X20.5Y-24.0
X20.5Y-31.5
X5.5Y-24.0
X5.5Y-31.5
X10.5Y-24.0
X10.5Y-31.5
T8
X4.0Y-11.0
X4.0Y-16.0
X9.0Y-3.5
X11.5Y-3.5
X11.5Y-11.0
X14.0Y-3.5
X16.5Y-13.5
X19.0Y-16.0
T9
X25.3Y-23.7
X26.3Y-13.7
X37.5Y-2.5
X54.7Y-13.7
X55.7Y-23.7
T10
X31.85Y-98.08
X31.85Y-149.34
T11
X210.83Y-8.08
X257.93Y-8.08
X304.92Y-93.96
X304.92Y-118.96
X268.07Y-8.08
X312.4Y-8.08
X74.6Y-8.08
X118.93Y-8.08
X304.92Y-125.96
X304.92Y-150.96
X154.07Y-8.08
X201.17Y-8.08
T12
X274.0Y-96.0
X158.5Y-187.25
T4
G00X60.0Y-10.0
M15
G01X60.0Y-8.5
M16
G05
G00X67.5Y-10.0
M15
G01X67.5Y-8.5
M16
G05
G00X126.0Y-10.0
M15
G01X126.0Y-8.5
M16
G05
G00X133.5Y-10.0
M15
G01X133.5Y-8.5
M16
G05
G00X139.0Y-10.0
M15
G01X139.0Y-8.5
M16
G05
G00X146.5Y-10.0
M15
G01X146.5Y-8.5
M16
G05
T7
G00X64.35Y-5.55
M15
G01X63.15Y-5.55
M16
G05
G00X130.35Y-5.55
M15
G01X129.15Y-5.55
M16
G05
G00X143.35Y-5.55
M15
G01X142.15Y-5.55
M16
G05
T8
G00X154.75Y-105.75
M15
G01X156.75Y-105.75
M16
G05
G00X61.0Y-31.5
M15
G01X63.0Y-31.5
M16
G05
G00X154.75Y-31.5
M15
G01X156.75Y-31.5
M16
G05
G00X61.0Y-105.75
M15
G01X63.0Y-105.75
M16
G05
T0
M30
